<?xml version="1.0" encoding="UTF-8"?>
<svg xmlns="http://www.w3.org/2000/svg" xmlns:xlink="http://www.w3.org/1999/xlink" width="px" height="px" viewBox="0 0 327 207" version="1.1">
<g id="surface1">
<path style=" stroke:none;fill-rule:nonzero;fill:rgb(90.196078%,90.196078%,90.196078%);fill-opacity:1;" d="M 207.964844 64.710938 C 208.582031 58.058594 210.285156 51.550781 213.007812 45.453125 C 213.765625 43.753906 214.601562 42.09375 215.511719 40.472656 C 215.605469 40.296875 215.542969 40.074219 215.371094 39.976562 C 215.199219 39.875 214.976562 39.929688 214.871094 40.097656 C 211.554688 46.007812 209.234375 52.421875 207.996094 59.089844 C 207.652344 60.949219 207.394531 62.824219 207.222656 64.710938 C 207.175781 65.1875 207.917969 65.183594 207.964844 64.710938 Z M 207.964844 64.710938 "/>
<path style=" stroke:none;fill-rule:nonzero;fill:rgb(90.196078%,90.196078%,90.196078%);fill-opacity:1;" d="M 222.007812 36.957031 C 222.007812 39.558594 219.90625 41.664062 217.308594 41.664062 C 214.714844 41.664062 212.609375 39.558594 212.609375 36.957031 C 212.609375 34.359375 214.714844 32.25 217.308594 32.25 C 219.90625 32.25 222.007812 34.359375 222.007812 36.957031 Z M 222.007812 36.957031 "/>
<path style=" stroke:none;fill-rule:nonzero;fill:rgb(90.196078%,90.196078%,90.196078%);fill-opacity:1;" d="M 208.445312 64.835938 C 208.84375 60.519531 209.949219 56.300781 211.714844 52.34375 C 212.207031 51.242188 212.75 50.164062 213.339844 49.113281 C 213.402344 48.996094 213.363281 48.855469 213.25 48.789062 C 213.136719 48.722656 212.996094 48.757812 212.925781 48.867188 C 210.773438 52.703125 209.269531 56.863281 208.464844 61.1875 C 208.242188 62.394531 208.074219 63.613281 207.960938 64.835938 C 207.933594 65.144531 208.414062 65.144531 208.445312 64.835938 Z M 208.445312 64.835938 "/>
<path style=" stroke:none;fill-rule:nonzero;fill:rgb(90.196078%,90.196078%,90.196078%);fill-opacity:1;" d="M 217.554688 46.832031 C 217.554688 48.515625 216.191406 49.882812 214.507812 49.882812 C 212.824219 49.882812 211.457031 48.515625 211.457031 46.832031 C 211.457031 45.144531 212.824219 43.777344 214.507812 43.777344 C 216.191406 43.777344 217.554688 45.144531 217.554688 46.832031 Z M 217.554688 46.832031 "/>
<path style=" stroke:none;fill-rule:nonzero;fill:rgb(90.196078%,90.196078%,90.196078%);fill-opacity:1;" d="M 207.835938 64.546875 C 205.5 60.898438 203.78125 56.890625 202.742188 52.683594 C 202.453125 51.511719 202.222656 50.328125 202.039062 49.132812 C 202.019531 49.003906 201.898438 48.917969 201.769531 48.933594 C 201.640625 48.953125 201.550781 49.066406 201.5625 49.195312 C 202.222656 53.546875 203.589844 57.753906 205.613281 61.660156 C 206.179688 62.746094 206.792969 63.808594 207.457031 64.84375 C 207.625 65.105469 208.003906 64.808594 207.835938 64.546875 Z M 207.835938 64.546875 "/>
<path style=" stroke:none;fill-rule:nonzero;fill:rgb(90.196078%,90.196078%,90.196078%);fill-opacity:1;" d="M 204.609375 46.617188 C 204.609375 48.304688 203.242188 49.671875 201.558594 49.671875 C 199.875 49.671875 198.511719 48.304688 198.511719 46.617188 C 198.511719 44.929688 199.875 43.5625 201.558594 43.5625 C 203.242188 43.5625 204.609375 44.929688 204.609375 46.617188 Z M 204.609375 46.617188 "/>
<path style=" stroke:none;fill-rule:nonzero;fill:rgb(94.901961%,94.901961%,94.901961%);fill-opacity:1;" d="M 198.476562 67.25 L 198.476562 61.25 C 198.476562 60.007812 199.484375 59 200.722656 59 L 214.703125 59 C 215.941406 59 216.945312 60.007812 216.949219 61.25 L 216.949219 67.25 C 216.945312 68.492188 215.941406 69.5 214.703125 69.5 L 200.722656 69.5 C 199.484375 69.5 198.476562 68.492188 198.476562 67.25 Z M 198.476562 67.25 "/>
<path style=" stroke:none;fill-rule:nonzero;fill:rgb(94.901961%,94.901961%,94.901961%);fill-opacity:1;" d="M 214.203125 29 L 208.210938 29 C 206.972656 29 205.964844 27.992188 205.964844 26.75 L 205.964844 2.25 C 205.964844 1.007812 206.972656 0 208.210938 0 L 214.203125 0 C 215.441406 0 216.445312 1.007812 216.449219 2.25 L 216.449219 26.75 C 216.445312 27.992188 215.441406 29 214.203125 29 Z M 214.203125 29 "/>
<path style=" stroke:none;fill-rule:nonzero;fill:rgb(80%,80%,80%);fill-opacity:1;" d="M 206.214844 4.75 L 216.199219 4.75 L 216.199219 6.75 L 206.214844 6.75 Z M 206.214844 4.75 "/>
<path style=" stroke:none;fill-rule:nonzero;fill:rgb(80%,80%,80%);fill-opacity:1;" d="M 206.214844 20.25 L 216.199219 20.25 L 216.199219 22.25 L 206.214844 22.25 Z M 206.214844 20.25 "/>
<path style=" stroke:none;fill-rule:nonzero;fill:rgb(94.901961%,94.901961%,94.901961%);fill-opacity:1;" d="M 229.179688 29 L 223.1875 29 C 221.949219 29 220.941406 27.992188 220.941406 26.75 L 220.941406 2.25 C 220.941406 1.007812 221.949219 0 223.1875 0 L 229.179688 0 C 230.417969 0 231.425781 1.007812 231.425781 2.25 L 231.425781 26.75 C 231.425781 27.992188 230.417969 29 229.179688 29 Z M 229.179688 29 "/>
<path style=" stroke:none;fill-rule:nonzero;fill:rgb(80%,80%,80%);fill-opacity:1;" d="M 221.191406 4.75 L 231.175781 4.75 L 231.175781 6.75 L 221.191406 6.75 Z M 221.191406 4.75 "/>
<path style=" stroke:none;fill-rule:nonzero;fill:rgb(80%,80%,80%);fill-opacity:1;" d="M 221.191406 20.25 L 231.175781 20.25 L 231.175781 22.25 L 221.191406 22.25 Z M 221.191406 20.25 "/>
<path style=" stroke:none;fill-rule:nonzero;fill:rgb(94.901961%,94.901961%,94.901961%);fill-opacity:1;" d="M 244.15625 29 L 238.164062 29 C 236.925781 29 235.921875 27.992188 235.917969 26.75 L 235.917969 2.25 C 235.921875 1.007812 236.925781 0 238.164062 0 L 244.15625 0 C 245.394531 0 246.402344 1.007812 246.402344 2.25 L 246.402344 26.75 C 246.402344 27.992188 245.394531 29 244.15625 29 Z M 244.15625 29 "/>
<path style=" stroke:none;fill-rule:nonzero;fill:rgb(80%,80%,80%);fill-opacity:1;" d="M 236.167969 4.75 L 246.152344 4.75 L 246.152344 6.75 L 236.167969 6.75 Z M 236.167969 4.75 "/>
<path style=" stroke:none;fill-rule:nonzero;fill:rgb(80%,80%,80%);fill-opacity:1;" d="M 236.167969 20.25 L 246.152344 20.25 L 246.152344 22.25 L 236.167969 22.25 Z M 236.167969 20.25 "/>
<path style=" stroke:none;fill-rule:nonzero;fill:rgb(94.901961%,94.901961%,94.901961%);fill-opacity:1;" d="M 252.144531 69.5 L 246.152344 69.5 C 244.914062 69.5 243.90625 68.492188 243.90625 67.25 L 243.90625 42.75 C 243.90625 41.507812 244.914062 40.5 246.152344 40.5 L 252.144531 40.5 C 253.382812 40.5 254.390625 41.507812 254.390625 42.75 L 254.390625 67.25 C 254.390625 68.492188 253.382812 69.5 252.144531 69.5 Z M 252.144531 69.5 "/>
<path style=" stroke:none;fill-rule:nonzero;fill:rgb(80%,80%,80%);fill-opacity:1;" d="M 244.15625 45.25 L 254.140625 45.25 L 254.140625 47.25 L 244.15625 47.25 Z M 244.15625 45.25 "/>
<path style=" stroke:none;fill-rule:nonzero;fill:rgb(80%,80%,80%);fill-opacity:1;" d="M 244.15625 60.75 L 254.140625 60.75 L 254.140625 62.75 L 244.15625 62.75 Z M 244.15625 60.75 "/>
<path style=" stroke:none;fill-rule:nonzero;fill:rgb(94.901961%,94.901961%,94.901961%);fill-opacity:1;" d="M 267.121094 69.5 L 261.128906 69.5 C 259.890625 69.5 258.886719 68.492188 258.882812 67.25 L 258.882812 42.75 C 258.886719 41.507812 259.890625 40.5 261.128906 40.5 L 267.121094 40.5 C 268.359375 40.5 269.367188 41.507812 269.367188 42.75 L 269.367188 67.25 C 269.367188 68.492188 268.359375 69.5 267.121094 69.5 Z M 267.121094 69.5 "/>
<path style=" stroke:none;fill-rule:nonzero;fill:rgb(80%,80%,80%);fill-opacity:1;" d="M 259.132812 45.25 L 269.117188 45.25 L 269.117188 47.25 L 259.132812 47.25 Z M 259.132812 45.25 "/>
<path style=" stroke:none;fill-rule:nonzero;fill:rgb(80%,80%,80%);fill-opacity:1;" d="M 259.132812 60.75 L 269.117188 60.75 L 269.117188 62.75 L 259.132812 62.75 Z M 259.132812 60.75 "/>
<path style=" stroke:none;fill-rule:nonzero;fill:rgb(94.901961%,94.901961%,94.901961%);fill-opacity:1;" d="M 282.097656 69.5 L 276.105469 69.5 C 274.867188 69.5 273.863281 68.492188 273.859375 67.25 L 273.859375 42.75 C 273.863281 41.507812 274.867188 40.5 276.105469 40.5 L 282.097656 40.5 C 283.339844 40.5 284.34375 41.507812 284.34375 42.75 L 284.34375 67.25 C 284.34375 68.492188 283.339844 69.5 282.097656 69.5 Z M 282.097656 69.5 "/>
<path style=" stroke:none;fill-rule:nonzero;fill:rgb(80%,80%,80%);fill-opacity:1;" d="M 274.109375 45.25 L 284.09375 45.25 L 284.09375 47.25 L 274.109375 47.25 Z M 274.109375 45.25 "/>
<path style=" stroke:none;fill-rule:nonzero;fill:rgb(80%,80%,80%);fill-opacity:1;" d="M 274.109375 60.75 L 284.09375 60.75 L 284.09375 62.75 L 274.109375 62.75 Z M 274.109375 60.75 "/>
<path style=" stroke:none;fill-rule:nonzero;fill:rgb(94.901961%,94.901961%,94.901961%);fill-opacity:1;" d="M 212.703125 110 L 206.714844 110 C 205.472656 110 204.46875 108.992188 204.46875 107.75 L 204.46875 83.25 C 204.46875 82.007812 205.472656 81 206.714844 81 L 212.703125 81 C 213.945312 81 214.949219 82.007812 214.949219 83.25 L 214.949219 107.75 C 214.949219 108.992188 213.945312 110 212.703125 110 Z M 212.703125 110 "/>
<path style=" stroke:none;fill-rule:nonzero;fill:rgb(80%,80%,80%);fill-opacity:1;" d="M 204.714844 85.75 L 214.703125 85.75 L 214.703125 87.75 L 204.714844 87.75 Z M 204.714844 85.75 "/>
<path style=" stroke:none;fill-rule:nonzero;fill:rgb(80%,80%,80%);fill-opacity:1;" d="M 204.714844 101.25 L 214.703125 101.25 L 214.703125 103.25 L 204.714844 103.25 Z M 204.714844 101.25 "/>
<path style=" stroke:none;fill-rule:nonzero;fill:rgb(94.901961%,94.901961%,94.901961%);fill-opacity:1;" d="M 227.679688 110 L 221.691406 110 C 220.449219 110 219.445312 108.992188 219.445312 107.75 L 219.445312 83.25 C 219.445312 82.007812 220.449219 81 221.691406 81 L 227.679688 81 C 228.921875 81 229.925781 82.007812 229.929688 83.25 L 229.929688 107.75 C 229.925781 108.992188 228.921875 110 227.679688 110 Z M 227.679688 110 "/>
<path style=" stroke:none;fill-rule:nonzero;fill:rgb(80%,80%,80%);fill-opacity:1;" d="M 219.695312 85.75 L 229.679688 85.75 L 229.679688 87.75 L 219.695312 87.75 Z M 219.695312 85.75 "/>
<path style=" stroke:none;fill-rule:nonzero;fill:rgb(80%,80%,80%);fill-opacity:1;" d="M 219.695312 101.25 L 229.679688 101.25 L 229.679688 103.25 L 219.695312 103.25 Z M 219.695312 101.25 "/>
<path style=" stroke:none;fill-rule:nonzero;fill:rgb(94.901961%,94.901961%,94.901961%);fill-opacity:1;" d="M 242.660156 110 L 236.667969 110 C 235.425781 110 234.421875 108.992188 234.421875 107.75 L 234.421875 83.25 C 234.421875 82.007812 235.425781 81 236.667969 81 L 242.660156 81 C 243.898438 81 244.902344 82.007812 244.90625 83.25 L 244.90625 107.75 C 244.902344 108.992188 243.898438 110 242.660156 110 Z M 242.660156 110 "/>
<path style=" stroke:none;fill-rule:nonzero;fill:rgb(80%,80%,80%);fill-opacity:1;" d="M 234.671875 85.75 L 244.65625 85.75 L 244.65625 87.75 L 234.671875 87.75 Z M 234.671875 85.75 "/>
<path style=" stroke:none;fill-rule:nonzero;fill:rgb(80%,80%,80%);fill-opacity:1;" d="M 234.671875 101.25 L 244.65625 101.25 L 244.65625 103.25 L 234.671875 103.25 Z M 234.671875 101.25 "/>
<path style=" stroke:none;fill-rule:nonzero;fill:rgb(94.901961%,94.901961%,94.901961%);fill-opacity:1;" d="M 259.132812 29 L 253.140625 29 C 251.902344 29 250.898438 27.992188 250.894531 26.75 L 250.894531 2.25 C 250.898438 1.007812 251.902344 0 253.140625 0 L 259.132812 0 C 260.375 0 261.378906 1.007812 261.378906 2.25 L 261.378906 26.75 C 261.378906 27.992188 260.375 29 259.132812 29 Z M 259.132812 29 "/>
<path style=" stroke:none;fill-rule:nonzero;fill:rgb(80%,80%,80%);fill-opacity:1;" d="M 251.144531 4.75 L 261.128906 4.75 L 261.128906 6.75 L 251.144531 6.75 Z M 251.144531 4.75 "/>
<path style=" stroke:none;fill-rule:nonzero;fill:rgb(80%,80%,80%);fill-opacity:1;" d="M 251.144531 20.25 L 261.128906 20.25 L 261.128906 22.25 L 251.144531 22.25 Z M 251.144531 20.25 "/>
<path style=" stroke:none;fill-rule:nonzero;fill:rgb(94.901961%,94.901961%,94.901961%);fill-opacity:1;" d="M 274.109375 29 L 268.121094 29 C 266.878906 29 265.875 27.992188 265.871094 26.75 L 265.871094 2.25 C 265.875 1.007812 266.878906 0 268.121094 0 L 274.109375 0 C 275.351562 0 276.355469 1.007812 276.355469 2.25 L 276.355469 26.75 C 276.355469 27.992188 275.351562 29 274.109375 29 Z M 274.109375 29 "/>
<path style=" stroke:none;fill-rule:nonzero;fill:rgb(80%,80%,80%);fill-opacity:1;" d="M 266.121094 4.75 L 276.105469 4.75 L 276.105469 6.75 L 266.121094 6.75 Z M 266.121094 4.75 "/>
<path style=" stroke:none;fill-rule:nonzero;fill:rgb(80%,80%,80%);fill-opacity:1;" d="M 266.121094 20.25 L 276.105469 20.25 L 276.105469 22.25 L 266.121094 22.25 Z M 266.121094 20.25 "/>
<path style=" stroke:none;fill-rule:nonzero;fill:rgb(94.901961%,94.901961%,94.901961%);fill-opacity:1;" d="M 289.085938 29 L 283.097656 29 C 281.855469 29 280.851562 27.992188 280.851562 26.75 L 280.851562 2.25 C 280.851562 1.007812 281.855469 0 283.097656 0 L 289.085938 0 C 290.328125 0 291.332031 1.007812 291.335938 2.25 L 291.335938 26.75 C 291.332031 27.992188 290.328125 29 289.085938 29 Z M 289.085938 29 "/>
<path style=" stroke:none;fill-rule:nonzero;fill:rgb(80%,80%,80%);fill-opacity:1;" d="M 281.101562 4.75 L 291.085938 4.75 L 291.085938 6.75 L 281.101562 6.75 Z M 281.101562 4.75 "/>
<path style=" stroke:none;fill-rule:nonzero;fill:rgb(80%,80%,80%);fill-opacity:1;" d="M 281.101562 20.25 L 291.085938 20.25 L 291.085938 22.25 L 281.101562 22.25 Z M 281.101562 20.25 "/>
<path style=" stroke:none;fill-rule:nonzero;fill:rgb(94.901961%,94.901961%,94.901961%);fill-opacity:1;" d="M 304.066406 29 L 298.074219 29 C 296.832031 29 295.828125 27.992188 295.828125 26.75 L 295.828125 2.25 C 295.828125 1.007812 296.832031 0 298.074219 0 L 304.066406 0 C 305.304688 0 306.308594 1.007812 306.3125 2.25 L 306.3125 26.75 C 306.308594 27.992188 305.304688 29 304.066406 29 Z M 304.066406 29 "/>
<path style=" stroke:none;fill-rule:nonzero;fill:rgb(80%,80%,80%);fill-opacity:1;" d="M 296.078125 4.75 L 306.0625 4.75 L 306.0625 6.75 L 296.078125 6.75 Z M 296.078125 4.75 "/>
<path style=" stroke:none;fill-rule:nonzero;fill:rgb(80%,80%,80%);fill-opacity:1;" d="M 296.078125 20.25 L 306.0625 20.25 L 306.0625 22.25 L 296.078125 22.25 Z M 296.078125 20.25 "/>
<path style=" stroke:none;fill-rule:nonzero;fill:rgb(80%,80%,80%);fill-opacity:1;" d="M 326.5 29.75 L 184.21875 29.75 C 183.941406 29.75 183.71875 29.527344 183.71875 29.25 C 183.71875 28.972656 183.941406 28.75 184.21875 28.75 L 326.5 28.75 C 326.777344 28.75 327 28.972656 327 29.25 C 327 29.527344 326.777344 29.75 326.5 29.75 Z M 326.5 29.75 "/>
<path style=" stroke:none;fill-rule:nonzero;fill:rgb(80%,80%,80%);fill-opacity:1;" d="M 326.5 70.25 L 184.21875 70.25 C 183.941406 70.25 183.71875 70.027344 183.71875 69.75 C 183.71875 69.472656 183.941406 69.25 184.21875 69.25 L 326.5 69.25 C 326.777344 69.25 327 69.472656 327 69.75 C 327 70.027344 326.777344 70.25 326.5 70.25 Z M 326.5 70.25 "/>
<path style=" stroke:none;fill-rule:nonzero;fill:rgb(80%,80%,80%);fill-opacity:1;" d="M 326.5 110.75 L 184.21875 110.75 C 183.941406 110.75 183.71875 110.527344 183.71875 110.25 C 183.71875 109.972656 183.941406 109.75 184.21875 109.75 L 326.5 109.75 C 326.777344 109.75 327 109.972656 327 110.25 C 327 110.527344 326.777344 110.75 326.5 110.75 Z M 326.5 110.75 "/>
<path style=" stroke:none;fill-rule:nonzero;fill:rgb(90.196078%,90.196078%,90.196078%);fill-opacity:1;" d="M 290.335938 105.210938 C 290.953125 98.558594 292.65625 92.050781 295.378906 85.953125 C 296.140625 84.253906 296.972656 82.59375 297.886719 80.972656 C 297.980469 80.796875 297.917969 80.574219 297.746094 80.476562 C 297.574219 80.375 297.351562 80.429688 297.246094 80.597656 C 293.929688 86.507812 291.609375 92.921875 290.371094 99.589844 C 290.027344 101.449219 289.769531 103.324219 289.59375 105.210938 C 289.550781 105.6875 290.292969 105.683594 290.335938 105.210938 Z M 290.335938 105.210938 "/>
<path style=" stroke:none;fill-rule:nonzero;fill:rgb(90.196078%,90.196078%,90.196078%);fill-opacity:1;" d="M 304.382812 77.457031 C 304.382812 80.058594 302.277344 82.164062 299.683594 82.164062 C 297.085938 82.164062 294.984375 80.058594 294.984375 77.457031 C 294.984375 74.859375 297.085938 72.75 299.683594 72.75 C 302.277344 72.75 304.382812 74.859375 304.382812 77.457031 Z M 304.382812 77.457031 "/>
<path style=" stroke:none;fill-rule:nonzero;fill:rgb(90.196078%,90.196078%,90.196078%);fill-opacity:1;" d="M 290.816406 105.335938 C 291.21875 101.019531 292.324219 96.800781 294.089844 92.84375 C 294.582031 91.742188 295.125 90.664062 295.714844 89.613281 C 295.777344 89.496094 295.738281 89.355469 295.625 89.289062 C 295.511719 89.222656 295.367188 89.257812 295.300781 89.367188 C 293.148438 93.203125 291.640625 97.363281 290.839844 101.6875 C 290.617188 102.894531 290.449219 104.113281 290.335938 105.335938 C 290.308594 105.644531 290.789062 105.644531 290.816406 105.335938 Z M 290.816406 105.335938 "/>
<path style=" stroke:none;fill-rule:nonzero;fill:rgb(90.196078%,90.196078%,90.196078%);fill-opacity:1;" d="M 299.929688 87.332031 C 299.929688 89.015625 298.566406 90.382812 296.882812 90.382812 C 295.195312 90.382812 293.832031 89.015625 293.832031 87.332031 C 293.832031 85.644531 295.195312 84.277344 296.882812 84.277344 C 298.566406 84.277344 299.929688 85.644531 299.929688 87.332031 Z M 299.929688 87.332031 "/>
<path style=" stroke:none;fill-rule:nonzero;fill:rgb(90.196078%,90.196078%,90.196078%);fill-opacity:1;" d="M 290.210938 105.046875 C 287.875 101.398438 286.15625 97.390625 285.117188 93.183594 C 284.828125 92.011719 284.59375 90.828125 284.414062 89.632812 C 284.394531 89.503906 284.273438 89.417969 284.144531 89.433594 C 284.015625 89.453125 283.925781 89.566406 283.9375 89.695312 C 284.597656 94.046875 285.964844 98.253906 287.988281 102.160156 C 288.554688 103.246094 289.167969 104.308594 289.832031 105.34375 C 290 105.605469 290.375 105.308594 290.210938 105.046875 Z M 290.210938 105.046875 "/>
<path style=" stroke:none;fill-rule:nonzero;fill:rgb(90.196078%,90.196078%,90.196078%);fill-opacity:1;" d="M 286.984375 87.117188 C 286.984375 88.804688 285.617188 90.171875 283.933594 90.171875 C 282.25 90.171875 280.882812 88.804688 280.882812 87.117188 C 280.882812 85.429688 282.25 84.0625 283.933594 84.0625 C 285.617188 84.0625 286.984375 85.429688 286.984375 87.117188 Z M 286.984375 87.117188 "/>
<path style=" stroke:none;fill-rule:nonzero;fill:rgb(94.901961%,94.901961%,94.901961%);fill-opacity:1;" d="M 280.851562 107.75 L 280.851562 101.75 C 280.851562 100.507812 281.855469 99.5 283.097656 99.5 L 297.074219 99.5 C 298.316406 99.5 299.320312 100.507812 299.320312 101.75 L 299.320312 107.75 C 299.320312 108.992188 298.316406 110 297.074219 110 L 283.097656 110 C 281.855469 110 280.851562 108.992188 280.851562 107.75 Z M 280.851562 107.75 "/>
<path style=" stroke:none;fill-rule:nonzero;fill:rgb(24.705882%,23.921569%,33.72549%);fill-opacity:1;" d="M 190.707031 181.75 L 0.5 181.75 C 0.222656 181.75 0 181.527344 0 181.25 C 0 180.972656 0.222656 180.75 0.5 180.75 L 190.707031 180.75 C 190.984375 180.75 191.207031 180.972656 191.207031 181.25 C 191.207031 181.527344 190.984375 181.75 190.707031 181.75 Z M 190.707031 181.75 "/>
<path style=" stroke:none;fill-rule:nonzero;fill:rgb(18.431373%,18.039216%,25.490196%);fill-opacity:1;" d="M 112.855469 102.75 C 112.855469 110.207031 106.820312 116.25 99.378906 116.25 C 91.933594 116.25 85.898438 110.207031 85.898438 102.75 C 85.898438 95.292969 91.933594 89.25 99.378906 89.25 C 106.820312 89.25 112.855469 95.292969 112.855469 102.75 Z M 112.855469 102.75 "/>
<path style=" stroke:none;fill-rule:nonzero;fill:rgb(100%,72.156863%,72.156863%);fill-opacity:1;" d="M 86.570312 189.414062 L 86.214844 183.292969 L 109.609375 179 L 110.136719 188.035156 Z M 86.570312 189.414062 "/>
<path style=" stroke:none;fill-rule:nonzero;fill:rgb(18.431373%,18.039216%,25.490196%);fill-opacity:1;" d="M 87.703125 178.820312 L 88.390625 190.621094 L 80.972656 191.058594 L 79.851562 171.824219 C 83.949219 171.585938 87.464844 174.714844 87.703125 178.820312 Z M 87.703125 178.820312 "/>
<path style=" stroke:none;fill-rule:nonzero;fill:rgb(100%,72.156863%,72.156863%);fill-opacity:1;" d="M 96.746094 189.355469 L 92.859375 194.09375 L 72.773438 181.332031 L 78.507812 174.34375 Z M 96.746094 189.355469 "/>
<path style=" stroke:none;fill-rule:nonzero;fill:rgb(18.431373%,18.039216%,25.490196%);fill-opacity:1;" d="M 88.734375 196.363281 L 96.226562 187.230469 L 101.96875 191.957031 L 89.753906 206.839844 C 86.585938 204.230469 86.125 199.539062 88.734375 196.363281 Z M 88.734375 196.363281 "/>
<path style=" stroke:none;fill-rule:nonzero;fill:rgb(18.431373%,18.039216%,25.490196%);fill-opacity:1;" d="M 85.5625 167.335938 L 82.90625 179.875 C 82.78125 180.460938 82.925781 181.070312 83.296875 181.535156 C 83.671875 182.003906 84.230469 182.28125 84.828125 182.289062 L 110.9375 182.710938 C 111.53125 182.71875 112.101562 182.464844 112.488281 182.007812 C 112.875 181.554688 113.039062 180.953125 112.9375 180.363281 L 110.652344 167.402344 C 110.484375 166.445312 109.65625 165.75 108.683594 165.75 L 87.515625 165.75 C 86.574219 165.75 85.757812 166.410156 85.5625 167.335938 Z M 85.5625 167.335938 "/>
<path style=" stroke:none;fill-rule:nonzero;fill:rgb(18.431373%,18.039216%,25.490196%);fill-opacity:1;" d="M 89.890625 171.75 C 89.890625 171.75 64.429688 155.75 59.4375 164.25 C 56.941406 168.5 58.191406 172.625 60.0625 175.6875 C 61.800781 178.476562 64.292969 180.710938 67.253906 182.132812 L 87.894531 192.25 L 95.382812 184.25 L 90.390625 179.75 Z M 89.890625 171.75 "/>
<path style=" stroke:none;fill-rule:nonzero;fill:rgb(18.431373%,18.039216%,25.490196%);fill-opacity:1;" d="M 102.871094 169.25 C 102.871094 169.25 135.820312 159.75 129.332031 177.75 C 122.839844 195.75 98.378906 188.75 98.378906 188.75 L 95.882812 181.25 L 104.371094 175.25 Z M 102.871094 169.25 "/>
<path style=" stroke:none;fill-rule:nonzero;fill:rgb(100%,72.156863%,72.156863%);fill-opacity:1;" d="M 111.808594 105.832031 C 111.808594 112.613281 106.320312 118.113281 99.546875 118.113281 C 92.773438 118.113281 87.285156 112.613281 87.285156 105.832031 C 87.285156 99.050781 92.773438 93.550781 99.546875 93.550781 C 106.320312 93.550781 111.808594 99.050781 111.808594 105.832031 Z M 111.808594 105.832031 "/>
<path style=" stroke:none;fill-rule:nonzero;fill:rgb(80%,80%,80%);fill-opacity:1;" d="M 100.1875 171.234375 C 95.09375 171.15625 90.023438 170.488281 85.082031 169.242188 L 84.9375 169.203125 L 78.09375 137.679688 C 76.820312 131.945312 80.023438 126.164062 85.550781 124.207031 C 93.800781 121.242188 102.796875 121.0625 111.160156 123.695312 C 116.980469 125.574219 120.378906 131.617188 118.964844 137.578125 L 111.324219 169.175781 L 111.214844 169.226562 C 108.039062 170.734375 104.070312 171.234375 100.1875 171.234375 Z M 100.1875 171.234375 "/>
<path style=" stroke:none;fill-rule:nonzero;fill:rgb(100%,72.156863%,72.156863%);fill-opacity:1;" d="M 91 173.683594 C 91.5 172.28125 92.597656 171.179688 93.992188 170.664062 C 95.386719 170.152344 96.9375 170.285156 98.226562 171.027344 L 111.699219 159.316406 L 112.917969 168.519531 L 99.9375 178.230469 C 98.515625 180.359375 95.730469 181.09375 93.449219 179.933594 C 91.171875 178.773438 90.117188 176.085938 91 173.683594 Z M 91 173.683594 "/>
<path style=" stroke:none;fill-rule:nonzero;fill:rgb(80%,80%,80%);fill-opacity:1;" d="M 103.847656 176.238281 C 103.628906 176.238281 103.410156 176.207031 103.199219 176.144531 C 102.507812 175.941406 101.957031 175.417969 101.722656 174.734375 L 100.09375 170.121094 C 99.785156 169.246094 100.042969 168.273438 100.746094 167.667969 L 119.101562 156.632812 L 111.867188 124.300781 L 112.050781 124.257812 C 112.125 124.238281 119.539062 122.546875 122.578125 130.664062 C 124.703125 136.34375 132.578125 148.699219 132.019531 157.050781 C 131.804688 160.488281 129.257812 163.328125 125.871094 163.914062 L 105.207031 175.769531 C 104.816406 176.074219 104.339844 176.238281 103.847656 176.238281 Z M 103.847656 176.238281 "/>
<path style=" stroke:none;fill-rule:nonzero;fill:rgb(100%,72.156863%,72.156863%);fill-opacity:1;" d="M 105.90625 172.585938 C 105.402344 171.1875 104.308594 170.082031 102.910156 169.570312 C 101.515625 169.054688 99.96875 169.1875 98.679688 169.929688 L 85.207031 158.21875 L 83.988281 167.421875 L 96.96875 177.132812 C 98.386719 179.265625 101.171875 179.996094 103.453125 178.835938 C 105.734375 177.675781 106.789062 174.992188 105.90625 172.585938 Z M 105.90625 172.585938 "/>
<path style=" stroke:none;fill-rule:nonzero;fill:rgb(80%,80%,80%);fill-opacity:1;" d="M 94.410156 176.238281 C 93.917969 176.238281 93.4375 176.074219 93.046875 175.769531 L 70.886719 164.914062 C 67.5 164.328125 64.953125 161.488281 64.738281 158.050781 C 64.179688 149.699219 73.550781 136.34375 75.679688 130.664062 C 78.71875 122.546875 86.132812 124.238281 86.207031 124.257812 L 86.390625 124.300781 L 77.65625 157.632812 L 97.511719 167.667969 C 98.214844 168.273438 98.472656 169.246094 98.160156 170.121094 L 96.535156 174.734375 C 96.296875 175.417969 95.746094 175.941406 95.054688 176.144531 C 94.847656 176.207031 94.628906 176.238281 94.410156 176.238281 Z M 94.410156 176.238281 "/>
<path style=" stroke:none;fill-rule:nonzero;fill:rgb(42.352941%,38.823529%,100%);fill-opacity:1;" d="M 120.84375 181.25 L 76.414062 181.25 C 74.484375 181.246094 72.921875 179.683594 72.917969 177.75 L 72.917969 153.25 C 72.921875 151.316406 74.484375 149.753906 76.414062 149.75 L 120.84375 149.75 C 122.773438 149.753906 124.335938 151.316406 124.339844 153.25 L 124.339844 177.75 C 124.335938 179.683594 122.773438 181.246094 120.84375 181.25 Z M 120.84375 181.25 "/>
<path style=" stroke:none;fill-rule:nonzero;fill:rgb(100%,100%,100%);fill-opacity:1;" d="M 101.625 165.5 C 101.625 167.15625 100.28125 168.5 98.628906 168.5 C 96.972656 168.5 95.632812 167.15625 95.632812 165.5 C 95.632812 163.84375 96.972656 162.5 98.628906 162.5 C 100.28125 162.5 101.625 163.84375 101.625 165.5 Z M 101.625 165.5 "/>
<path style=" stroke:none;fill-rule:nonzero;fill:rgb(18.431373%,18.039216%,25.490196%);fill-opacity:1;" d="M 87.160156 105.332031 C 86.433594 103.488281 87.628906 101.285156 89.394531 100.390625 C 91.164062 99.5 93.300781 99.667969 95.191406 100.257812 C 96.78125 100.753906 98.273438 101.519531 99.824219 102.125 C 101.351562 102.804688 103.023438 103.101562 104.691406 102.996094 C 106.347656 102.808594 107.992188 101.878906 108.671875 100.355469 C 109.371094 98.777344 108.894531 96.847656 107.8125 95.5 C 106.664062 94.199219 105.175781 93.238281 103.515625 92.734375 C 99.867188 91.445312 95.652344 91.410156 92.265625 93.28125 C 88.878906 95.152344 86.578125 99.132812 87.277344 102.945312 "/>
<path style=" stroke:none;fill-rule:nonzero;fill:rgb(90.196078%,90.196078%,90.196078%);fill-opacity:1;" d="M 16.304688 175.910156 C 16.921875 169.257812 18.625 162.75 21.347656 156.652344 C 22.109375 154.953125 22.941406 153.292969 23.855469 151.671875 C 23.949219 151.492188 23.886719 151.273438 23.714844 151.171875 C 23.542969 151.070312 23.320312 151.125 23.214844 151.296875 C 19.898438 157.207031 17.578125 163.621094 16.339844 170.285156 C 15.996094 172.148438 15.738281 174.023438 15.5625 175.910156 C 15.519531 176.386719 16.261719 176.382812 16.304688 175.910156 Z M 16.304688 175.910156 "/>
<path style=" stroke:none;fill-rule:nonzero;fill:rgb(42.352941%,38.823529%,100%);fill-opacity:1;" d="M 30.351562 148.15625 C 30.351562 150.753906 28.246094 152.863281 25.652344 152.863281 C 23.054688 152.863281 20.953125 150.753906 20.953125 148.15625 C 20.953125 145.554688 23.054688 143.449219 25.652344 143.449219 C 28.246094 143.449219 30.351562 145.554688 30.351562 148.15625 Z M 30.351562 148.15625 "/>
<path style=" stroke:none;fill-rule:nonzero;fill:rgb(90.196078%,90.196078%,90.196078%);fill-opacity:1;" d="M 16.785156 176.035156 C 17.1875 171.71875 18.292969 167.496094 20.058594 163.539062 C 20.550781 162.4375 21.09375 161.363281 21.683594 160.308594 C 21.746094 160.195312 21.707031 160.050781 21.59375 159.988281 C 21.480469 159.921875 21.335938 159.957031 21.269531 160.066406 C 19.117188 163.898438 17.609375 168.0625 16.808594 172.386719 C 16.585938 173.59375 16.417969 174.808594 16.304688 176.035156 C 16.277344 176.34375 16.757812 176.339844 16.785156 176.035156 Z M 16.785156 176.035156 "/>
<path style=" stroke:none;fill-rule:nonzero;fill:rgb(42.352941%,38.823529%,100%);fill-opacity:1;" d="M 25.898438 158.027344 C 25.898438 159.714844 24.535156 161.082031 22.851562 161.082031 C 21.164062 161.082031 19.800781 159.714844 19.800781 158.027344 C 19.800781 156.34375 21.164062 154.976562 22.851562 154.976562 C 24.535156 154.976562 25.898438 156.34375 25.898438 158.027344 Z M 25.898438 158.027344 "/>
<path style=" stroke:none;fill-rule:nonzero;fill:rgb(90.196078%,90.196078%,90.196078%);fill-opacity:1;" d="M 16.179688 175.746094 C 13.84375 172.097656 12.125 168.085938 11.085938 163.878906 C 10.796875 162.707031 10.5625 161.523438 10.382812 160.332031 C 10.363281 160.203125 10.242188 160.113281 10.113281 160.132812 C 9.984375 160.148438 9.894531 160.265625 9.90625 160.394531 C 10.566406 164.742188 11.933594 168.953125 13.957031 172.855469 C 14.523438 173.945312 15.136719 175.007812 15.800781 176.042969 C 15.96875 176.304688 16.34375 176.003906 16.179688 175.746094 Z M 16.179688 175.746094 "/>
<path style=" stroke:none;fill-rule:nonzero;fill:rgb(42.352941%,38.823529%,100%);fill-opacity:1;" d="M 12.953125 157.8125 C 12.953125 159.5 11.585938 160.867188 9.902344 160.867188 C 8.21875 160.867188 6.851562 159.5 6.851562 157.8125 C 6.851562 156.128906 8.21875 154.761719 9.902344 154.761719 C 11.585938 154.761719 12.953125 156.128906 12.953125 157.8125 Z M 12.953125 157.8125 "/>
<path style=" stroke:none;fill-rule:nonzero;fill:rgb(94.901961%,94.901961%,94.901961%);fill-opacity:1;" d="M 6.820312 178.449219 L 6.820312 172.449219 C 6.820312 171.207031 7.824219 170.199219 9.066406 170.199219 L 23.042969 170.199219 C 24.285156 170.199219 25.289062 171.207031 25.289062 172.449219 L 25.289062 178.449219 C 25.289062 179.691406 24.285156 180.695312 23.042969 180.699219 L 9.066406 180.699219 C 7.824219 180.695312 6.820312 179.691406 6.820312 178.449219 Z M 6.820312 178.449219 "/>
<path style=" stroke:none;fill-rule:nonzero;fill:rgb(100%,39.607843%,51.764706%);fill-opacity:1;" d="M 156.964844 185.449219 C 156.964844 188.738281 154.300781 190.234375 151.019531 190.234375 C 147.734375 190.234375 145.074219 188.738281 145.074219 185.449219 C 145.074219 182.160156 146.394531 178.324219 151.019531 179.648438 C 155.644531 177.664062 156.964844 182.160156 156.964844 185.449219 Z M 156.964844 185.449219 "/>
<path style=" stroke:none;fill-rule:nonzero;fill:rgb(24.705882%,23.921569%,33.72549%);fill-opacity:1;" d="M 150.730469 181.1875 C 150.25 181.1875 149.847656 180.832031 149.785156 180.359375 C 149.589844 178.71875 148.503906 175.503906 148.046875 174.199219 C 147.953125 173.9375 147.992188 173.644531 148.15625 173.414062 C 148.3125 173.214844 148.546875 173.085938 148.800781 173.070312 C 149.054688 173.050781 149.304688 173.140625 149.484375 173.320312 C 149.648438 173.492188 149.734375 173.722656 149.71875 173.957031 C 149.628906 175.632812 150.847656 178.339844 151.585938 179.804688 C 151.726562 180.085938 151.71875 180.417969 151.570312 180.691406 C 151.417969 180.96875 151.140625 181.152344 150.832031 181.183594 C 150.796875 181.1875 150.761719 181.1875 150.730469 181.1875 Z M 150.730469 181.1875 "/>
<path style=" stroke:none;fill-rule:nonzero;fill:rgb(24.705882%,23.921569%,33.72549%);fill-opacity:1;" d="M 155.128906 177.492188 C 157.191406 175.800781 155.574219 172.339844 152.992188 173.003906 C 152.644531 173.085938 152.324219 173.257812 152.058594 173.5 C 150.476562 175 150.230469 178.835938 150.230469 178.835938 C 150.230469 178.835938 153.027344 179.214844 155.128906 177.492188 Z M 155.128906 177.492188 "/>
</g>
</svg>
