<?xml version="1.0" encoding="UTF-8"?>
<svg xmlns="http://www.w3.org/2000/svg" xmlns:xlink="http://www.w3.org/1999/xlink" width="px" height="px" viewBox="0 0 370 237" version="1.1">
<g id="surface1">
<path style=" stroke:none;fill-rule:nonzero;fill:rgb(90.196078%,90.196078%,90.196078%);fill-opacity:1;" d="M 55.679688 64.710938 C 56.296875 58.058594 58 51.550781 60.722656 45.453125 C 61.484375 43.753906 62.316406 42.09375 63.230469 40.472656 C 63.324219 40.296875 63.261719 40.074219 63.089844 39.976562 C 62.917969 39.875 62.695312 39.929688 62.589844 40.097656 C 59.273438 46.007812 56.949219 52.421875 55.714844 59.089844 C 55.371094 60.949219 55.109375 62.824219 54.9375 64.710938 C 54.894531 65.1875 55.636719 65.183594 55.679688 64.710938 Z M 55.679688 64.710938 "/>
<path style=" stroke:none;fill-rule:nonzero;fill:rgb(90.196078%,90.196078%,90.196078%);fill-opacity:1;" d="M 69.726562 36.957031 C 69.726562 39.558594 67.625 41.664062 65.027344 41.664062 C 62.429688 41.664062 60.328125 39.558594 60.328125 36.957031 C 60.328125 34.359375 62.429688 32.25 65.027344 32.25 C 67.625 32.25 69.726562 34.359375 69.726562 36.957031 Z M 69.726562 36.957031 "/>
<path style=" stroke:none;fill-rule:nonzero;fill:rgb(90.196078%,90.196078%,90.196078%);fill-opacity:1;" d="M 56.160156 64.835938 C 56.5625 60.519531 57.667969 56.300781 59.433594 52.34375 C 59.925781 51.242188 60.46875 50.164062 61.058594 49.113281 C 61.121094 48.996094 61.082031 48.855469 60.96875 48.789062 C 60.855469 48.722656 60.710938 48.757812 60.644531 48.867188 C 58.492188 52.703125 56.984375 56.863281 56.183594 61.1875 C 55.960938 62.394531 55.792969 63.613281 55.679688 64.835938 C 55.652344 65.144531 56.132812 65.144531 56.160156 64.835938 Z M 56.160156 64.835938 "/>
<path style=" stroke:none;fill-rule:nonzero;fill:rgb(90.196078%,90.196078%,90.196078%);fill-opacity:1;" d="M 65.273438 46.832031 C 65.273438 48.515625 63.910156 49.882812 62.226562 49.882812 C 60.539062 49.882812 59.175781 48.515625 59.175781 46.832031 C 59.175781 45.144531 60.539062 43.777344 62.226562 43.777344 C 63.910156 43.777344 65.273438 45.144531 65.273438 46.832031 Z M 65.273438 46.832031 "/>
<path style=" stroke:none;fill-rule:nonzero;fill:rgb(90.196078%,90.196078%,90.196078%);fill-opacity:1;" d="M 55.554688 64.546875 C 53.21875 60.898438 51.496094 56.890625 50.460938 52.683594 C 50.171875 51.511719 49.9375 50.328125 49.757812 49.132812 C 49.734375 49.003906 49.613281 48.917969 49.488281 48.933594 C 49.359375 48.953125 49.265625 49.066406 49.277344 49.195312 C 49.9375 53.546875 51.308594 57.753906 53.328125 61.660156 C 53.894531 62.746094 54.511719 63.808594 55.171875 64.84375 C 55.339844 65.105469 55.71875 64.808594 55.554688 64.546875 Z M 55.554688 64.546875 "/>
<path style=" stroke:none;fill-rule:nonzero;fill:rgb(90.196078%,90.196078%,90.196078%);fill-opacity:1;" d="M 52.324219 46.617188 C 52.324219 48.304688 50.960938 49.671875 49.273438 49.671875 C 47.589844 49.671875 46.226562 48.304688 46.226562 46.617188 C 46.226562 44.929688 47.589844 43.5625 49.273438 43.5625 C 50.960938 43.5625 52.324219 44.929688 52.324219 46.617188 Z M 52.324219 46.617188 "/>
<path style=" stroke:none;fill-rule:nonzero;fill:rgb(94.901961%,94.901961%,94.901961%);fill-opacity:1;" d="M 46.191406 67.25 L 46.191406 61.25 C 46.191406 60.007812 47.199219 59 48.4375 59 L 62.417969 59 C 63.660156 59 64.664062 60.007812 64.667969 61.25 L 64.667969 67.25 C 64.664062 68.492188 63.660156 69.5 62.417969 69.5 L 48.4375 69.5 C 47.199219 69.5 46.191406 68.492188 46.191406 67.25 Z M 46.191406 67.25 "/>
<path style=" stroke:none;fill-rule:nonzero;fill:rgb(94.901961%,94.901961%,94.901961%);fill-opacity:1;" d="M 61.917969 29 L 55.929688 29 C 54.6875 29 53.683594 27.992188 53.679688 26.75 L 53.679688 2.25 C 53.683594 1.007812 54.6875 0 55.929688 0 L 61.917969 0 C 63.160156 0 64.164062 1.007812 64.167969 2.25 L 64.167969 26.75 C 64.164062 27.992188 63.160156 29 61.917969 29 Z M 61.917969 29 "/>
<path style=" stroke:none;fill-rule:nonzero;fill:rgb(80%,80%,80%);fill-opacity:1;" d="M 53.929688 4.75 L 63.917969 4.75 L 63.917969 6.75 L 53.929688 6.75 Z M 53.929688 4.75 "/>
<path style=" stroke:none;fill-rule:nonzero;fill:rgb(80%,80%,80%);fill-opacity:1;" d="M 53.929688 20.25 L 63.917969 20.25 L 63.917969 22.25 L 53.929688 22.25 Z M 53.929688 20.25 "/>
<path style=" stroke:none;fill-rule:nonzero;fill:rgb(94.901961%,94.901961%,94.901961%);fill-opacity:1;" d="M 76.898438 29 L 70.90625 29 C 69.667969 29 68.660156 27.992188 68.660156 26.75 L 68.660156 2.25 C 68.660156 1.007812 69.667969 0 70.90625 0 L 76.898438 0 C 78.140625 0 79.144531 1.007812 79.148438 2.25 L 79.148438 26.75 C 79.144531 27.992188 78.140625 29 76.898438 29 Z M 76.898438 29 "/>
<path style=" stroke:none;fill-rule:nonzero;fill:rgb(80%,80%,80%);fill-opacity:1;" d="M 68.910156 4.75 L 78.898438 4.75 L 78.898438 6.75 L 68.910156 6.75 Z M 68.910156 4.75 "/>
<path style=" stroke:none;fill-rule:nonzero;fill:rgb(80%,80%,80%);fill-opacity:1;" d="M 68.910156 20.25 L 78.898438 20.25 L 78.898438 22.25 L 68.910156 22.25 Z M 68.910156 20.25 "/>
<path style=" stroke:none;fill-rule:nonzero;fill:rgb(94.901961%,94.901961%,94.901961%);fill-opacity:1;" d="M 91.878906 29 L 85.886719 29 C 84.648438 29 83.640625 27.992188 83.640625 26.75 L 83.640625 2.25 C 83.640625 1.007812 84.648438 0 85.886719 0 L 91.878906 0 C 93.121094 0 94.125 1.007812 94.125 2.25 L 94.125 26.75 C 94.125 27.992188 93.121094 29 91.878906 29 Z M 91.878906 29 "/>
<path style=" stroke:none;fill-rule:nonzero;fill:rgb(80%,80%,80%);fill-opacity:1;" d="M 83.890625 4.75 L 93.875 4.75 L 93.875 6.75 L 83.890625 6.75 Z M 83.890625 4.75 "/>
<path style=" stroke:none;fill-rule:nonzero;fill:rgb(80%,80%,80%);fill-opacity:1;" d="M 83.890625 20.25 L 93.875 20.25 L 93.875 22.25 L 83.890625 22.25 Z M 83.890625 20.25 "/>
<path style=" stroke:none;fill-rule:nonzero;fill:rgb(94.901961%,94.901961%,94.901961%);fill-opacity:1;" d="M 99.867188 69.5 L 93.875 69.5 C 92.636719 69.5 91.632812 68.492188 91.628906 67.25 L 91.628906 42.75 C 91.632812 41.507812 92.636719 40.5 93.875 40.5 L 99.867188 40.5 C 101.109375 40.5 102.113281 41.507812 102.117188 42.75 L 102.117188 67.25 C 102.113281 68.492188 101.109375 69.5 99.867188 69.5 Z M 99.867188 69.5 "/>
<path style=" stroke:none;fill-rule:nonzero;fill:rgb(80%,80%,80%);fill-opacity:1;" d="M 91.878906 45.25 L 101.867188 45.25 L 101.867188 47.25 L 91.878906 47.25 Z M 91.878906 45.25 "/>
<path style=" stroke:none;fill-rule:nonzero;fill:rgb(80%,80%,80%);fill-opacity:1;" d="M 91.878906 60.75 L 101.867188 60.75 L 101.867188 62.75 L 91.878906 62.75 Z M 91.878906 60.75 "/>
<path style=" stroke:none;fill-rule:nonzero;fill:rgb(94.901961%,94.901961%,94.901961%);fill-opacity:1;" d="M 114.847656 69.5 L 108.855469 69.5 C 107.617188 69.5 106.609375 68.492188 106.609375 67.25 L 106.609375 42.75 C 106.609375 41.507812 107.617188 40.5 108.855469 40.5 L 114.847656 40.5 C 116.089844 40.5 117.09375 41.507812 117.09375 42.75 L 117.09375 67.25 C 117.09375 68.492188 116.089844 69.5 114.847656 69.5 Z M 114.847656 69.5 "/>
<path style=" stroke:none;fill-rule:nonzero;fill:rgb(80%,80%,80%);fill-opacity:1;" d="M 106.859375 45.25 L 116.84375 45.25 L 116.84375 47.25 L 106.859375 47.25 Z M 106.859375 45.25 "/>
<path style=" stroke:none;fill-rule:nonzero;fill:rgb(80%,80%,80%);fill-opacity:1;" d="M 106.859375 60.75 L 116.84375 60.75 L 116.84375 62.75 L 106.859375 62.75 Z M 106.859375 60.75 "/>
<path style=" stroke:none;fill-rule:nonzero;fill:rgb(94.901961%,94.901961%,94.901961%);fill-opacity:1;" d="M 129.828125 69.5 L 123.835938 69.5 C 122.597656 69.5 121.589844 68.492188 121.589844 67.25 L 121.589844 42.75 C 121.589844 41.507812 122.597656 40.5 123.835938 40.5 L 129.828125 40.5 C 131.070312 40.5 132.074219 41.507812 132.074219 42.75 L 132.074219 67.25 C 132.074219 68.492188 131.070312 69.5 129.828125 69.5 Z M 129.828125 69.5 "/>
<path style=" stroke:none;fill-rule:nonzero;fill:rgb(80%,80%,80%);fill-opacity:1;" d="M 121.839844 45.25 L 131.824219 45.25 L 131.824219 47.25 L 121.839844 47.25 Z M 121.839844 45.25 "/>
<path style=" stroke:none;fill-rule:nonzero;fill:rgb(80%,80%,80%);fill-opacity:1;" d="M 121.839844 60.75 L 131.824219 60.75 L 131.824219 62.75 L 121.839844 62.75 Z M 121.839844 60.75 "/>
<path style=" stroke:none;fill-rule:nonzero;fill:rgb(94.901961%,94.901961%,94.901961%);fill-opacity:1;" d="M 60.421875 110 L 54.429688 110 C 53.191406 110 52.183594 108.992188 52.183594 107.75 L 52.183594 83.25 C 52.183594 82.007812 53.191406 81 54.429688 81 L 60.421875 81 C 61.664062 81 62.667969 82.007812 62.667969 83.25 L 62.667969 107.75 C 62.667969 108.992188 61.664062 110 60.421875 110 Z M 60.421875 110 "/>
<path style=" stroke:none;fill-rule:nonzero;fill:rgb(80%,80%,80%);fill-opacity:1;" d="M 52.433594 85.75 L 62.417969 85.75 L 62.417969 87.75 L 52.433594 87.75 Z M 52.433594 85.75 "/>
<path style=" stroke:none;fill-rule:nonzero;fill:rgb(80%,80%,80%);fill-opacity:1;" d="M 52.433594 101.25 L 62.417969 101.25 L 62.417969 103.25 L 52.433594 103.25 Z M 52.433594 101.25 "/>
<path style=" stroke:none;fill-rule:nonzero;fill:rgb(94.901961%,94.901961%,94.901961%);fill-opacity:1;" d="M 75.402344 110 L 69.410156 110 C 68.167969 110 67.164062 108.992188 67.164062 107.75 L 67.164062 83.25 C 67.164062 82.007812 68.167969 81 69.410156 81 L 75.402344 81 C 76.640625 81 77.648438 82.007812 77.648438 83.25 L 77.648438 107.75 C 77.648438 108.992188 76.640625 110 75.402344 110 Z M 75.402344 110 "/>
<path style=" stroke:none;fill-rule:nonzero;fill:rgb(80%,80%,80%);fill-opacity:1;" d="M 67.414062 85.75 L 77.398438 85.75 L 77.398438 87.75 L 67.414062 87.75 Z M 67.414062 85.75 "/>
<path style=" stroke:none;fill-rule:nonzero;fill:rgb(80%,80%,80%);fill-opacity:1;" d="M 67.414062 101.25 L 77.398438 101.25 L 77.398438 103.25 L 67.414062 103.25 Z M 67.414062 101.25 "/>
<path style=" stroke:none;fill-rule:nonzero;fill:rgb(94.901961%,94.901961%,94.901961%);fill-opacity:1;" d="M 90.382812 110 L 84.390625 110 C 83.148438 110 82.144531 108.992188 82.140625 107.75 L 82.140625 83.25 C 82.144531 82.007812 83.148438 81 84.390625 81 L 90.382812 81 C 91.621094 81 92.625 82.007812 92.628906 83.25 L 92.628906 107.75 C 92.625 108.992188 91.621094 110 90.382812 110 Z M 90.382812 110 "/>
<path style=" stroke:none;fill-rule:nonzero;fill:rgb(80%,80%,80%);fill-opacity:1;" d="M 82.390625 85.75 L 92.378906 85.75 L 92.378906 87.75 L 82.390625 87.75 Z M 82.390625 85.75 "/>
<path style=" stroke:none;fill-rule:nonzero;fill:rgb(80%,80%,80%);fill-opacity:1;" d="M 82.390625 101.25 L 92.378906 101.25 L 92.378906 103.25 L 82.390625 103.25 Z M 82.390625 101.25 "/>
<path style=" stroke:none;fill-rule:nonzero;fill:rgb(94.901961%,94.901961%,94.901961%);fill-opacity:1;" d="M 106.859375 29 L 100.867188 29 C 99.625 29 98.621094 27.992188 98.621094 26.75 L 98.621094 2.25 C 98.621094 1.007812 99.625 0 100.867188 0 L 106.859375 0 C 108.097656 0 109.105469 1.007812 109.105469 2.25 L 109.105469 26.75 C 109.105469 27.992188 108.097656 29 106.859375 29 Z M 106.859375 29 "/>
<path style=" stroke:none;fill-rule:nonzero;fill:rgb(80%,80%,80%);fill-opacity:1;" d="M 98.871094 4.75 L 108.855469 4.75 L 108.855469 6.75 L 98.871094 6.75 Z M 98.871094 4.75 "/>
<path style=" stroke:none;fill-rule:nonzero;fill:rgb(80%,80%,80%);fill-opacity:1;" d="M 98.871094 20.25 L 108.855469 20.25 L 108.855469 22.25 L 98.871094 22.25 Z M 98.871094 20.25 "/>
<path style=" stroke:none;fill-rule:nonzero;fill:rgb(94.901961%,94.901961%,94.901961%);fill-opacity:1;" d="M 121.839844 29 L 115.847656 29 C 114.605469 29 113.601562 27.992188 113.601562 26.75 L 113.601562 2.25 C 113.601562 1.007812 114.605469 0 115.847656 0 L 121.839844 0 C 123.078125 0 124.085938 1.007812 124.085938 2.25 L 124.085938 26.75 C 124.085938 27.992188 123.078125 29 121.839844 29 Z M 121.839844 29 "/>
<path style=" stroke:none;fill-rule:nonzero;fill:rgb(80%,80%,80%);fill-opacity:1;" d="M 113.851562 4.75 L 123.835938 4.75 L 123.835938 6.75 L 113.851562 6.75 Z M 113.851562 4.75 "/>
<path style=" stroke:none;fill-rule:nonzero;fill:rgb(80%,80%,80%);fill-opacity:1;" d="M 113.851562 20.25 L 123.835938 20.25 L 123.835938 22.25 L 113.851562 22.25 Z M 113.851562 20.25 "/>
<path style=" stroke:none;fill-rule:nonzero;fill:rgb(94.901961%,94.901961%,94.901961%);fill-opacity:1;" d="M 136.820312 29 L 130.828125 29 C 129.585938 29 128.582031 27.992188 128.578125 26.75 L 128.578125 2.25 C 128.582031 1.007812 129.585938 0 130.828125 0 L 136.820312 0 C 138.058594 0 139.0625 1.007812 139.066406 2.25 L 139.066406 26.75 C 139.0625 27.992188 138.058594 29 136.820312 29 Z M 136.820312 29 "/>
<path style=" stroke:none;fill-rule:nonzero;fill:rgb(80%,80%,80%);fill-opacity:1;" d="M 128.828125 4.75 L 138.816406 4.75 L 138.816406 6.75 L 128.828125 6.75 Z M 128.828125 4.75 "/>
<path style=" stroke:none;fill-rule:nonzero;fill:rgb(80%,80%,80%);fill-opacity:1;" d="M 128.828125 20.25 L 138.816406 20.25 L 138.816406 22.25 L 128.828125 22.25 Z M 128.828125 20.25 "/>
<path style=" stroke:none;fill-rule:nonzero;fill:rgb(94.901961%,94.901961%,94.901961%);fill-opacity:1;" d="M 151.796875 29 L 145.804688 29 C 144.566406 29 143.5625 27.992188 143.558594 26.75 L 143.558594 2.25 C 143.5625 1.007812 144.566406 0 145.804688 0 L 151.796875 0 C 153.039062 0 154.042969 1.007812 154.046875 2.25 L 154.046875 26.75 C 154.042969 27.992188 153.039062 29 151.796875 29 Z M 151.796875 29 "/>
<path style=" stroke:none;fill-rule:nonzero;fill:rgb(80%,80%,80%);fill-opacity:1;" d="M 143.808594 4.75 L 153.796875 4.75 L 153.796875 6.75 L 143.808594 6.75 Z M 143.808594 4.75 "/>
<path style=" stroke:none;fill-rule:nonzero;fill:rgb(80%,80%,80%);fill-opacity:1;" d="M 143.808594 20.25 L 153.796875 20.25 L 153.796875 22.25 L 143.808594 22.25 Z M 143.808594 20.25 "/>
<path style=" stroke:none;fill-rule:nonzero;fill:rgb(80%,80%,80%);fill-opacity:1;" d="M 174.238281 29.75 L 31.929688 29.75 C 31.65625 29.75 31.429688 29.527344 31.429688 29.25 C 31.429688 28.972656 31.65625 28.75 31.929688 28.75 L 174.238281 28.75 C 174.515625 28.75 174.738281 28.972656 174.738281 29.25 C 174.738281 29.527344 174.515625 29.75 174.238281 29.75 Z M 174.238281 29.75 "/>
<path style=" stroke:none;fill-rule:nonzero;fill:rgb(80%,80%,80%);fill-opacity:1;" d="M 174.238281 70.25 L 31.929688 70.25 C 31.65625 70.25 31.429688 70.027344 31.429688 69.75 C 31.429688 69.472656 31.65625 69.25 31.929688 69.25 L 174.238281 69.25 C 174.515625 69.25 174.738281 69.472656 174.738281 69.75 C 174.738281 70.027344 174.515625 70.25 174.238281 70.25 Z M 174.238281 70.25 "/>
<path style=" stroke:none;fill-rule:nonzero;fill:rgb(80%,80%,80%);fill-opacity:1;" d="M 174.238281 110.75 L 31.929688 110.75 C 31.65625 110.75 31.429688 110.527344 31.429688 110.25 C 31.429688 109.972656 31.65625 109.75 31.929688 109.75 L 174.238281 109.75 C 174.515625 109.75 174.738281 109.972656 174.738281 110.25 C 174.738281 110.527344 174.515625 110.75 174.238281 110.75 Z M 174.238281 110.75 "/>
<path style=" stroke:none;fill-rule:nonzero;fill:rgb(80%,80%,80%);fill-opacity:1;" d="M 165.8125 189.242188 C 165.8125 185.375 151.28125 182.242188 133.355469 182.242188 C 115.429688 182.242188 100.898438 185.375 100.898438 189.242188 C 100.898438 191.71875 106.871094 193.894531 115.878906 195.136719 L 115.878906 233.492188 C 115.878906 235.285156 117.332031 236.742188 119.125 236.742188 C 120.917969 236.742188 122.371094 235.285156 122.371094 233.492188 L 122.371094 195.828125 C 125.800781 196.09375 129.5 196.242188 133.355469 196.242188 C 137.210938 196.242188 140.910156 196.09375 144.339844 195.828125 L 144.339844 233.492188 C 144.339844 235.285156 145.792969 236.742188 147.585938 236.742188 C 149.378906 236.742188 150.832031 235.285156 150.832031 233.492188 L 150.832031 195.136719 C 159.835938 193.894531 165.8125 191.71875 165.8125 189.242188 Z M 165.8125 189.242188 "/>
<path style=" stroke:none;fill-rule:nonzero;fill:rgb(62.745098%,38.039216%,41.568627%);fill-opacity:1;" d="M 159.566406 230.453125 L 165.6875 230.453125 L 168.601562 206.808594 L 159.566406 206.808594 Z M 159.566406 230.453125 "/>
<path style=" stroke:none;fill-rule:nonzero;fill:rgb(18.431373%,18.039216%,25.490196%);fill-opacity:1;" d="M 177.492188 236.144531 L 158.253906 236.144531 L 158.253906 228.703125 L 170.058594 228.703125 C 174.164062 228.699219 177.492188 232.035156 177.492188 236.144531 Z M 177.492188 236.144531 "/>
<path style=" stroke:none;fill-rule:nonzero;fill:rgb(62.745098%,38.039216%,41.568627%);fill-opacity:1;" d="M 169.121094 227.03125 L 174.960938 225.195312 L 170.671875 201.765625 L 162.050781 204.472656 Z M 169.121094 227.03125 "/>
<path style=" stroke:none;fill-rule:nonzero;fill:rgb(18.431373%,18.039216%,25.490196%);fill-opacity:1;" d="M 187.929688 227.085938 L 169.570312 232.855469 L 167.347656 225.753906 L 178.609375 222.214844 C 182.527344 220.984375 186.699219 223.164062 187.929688 227.085938 Z M 187.929688 227.085938 "/>
<path style=" stroke:none;fill-rule:nonzero;fill:rgb(18.431373%,18.039216%,25.490196%);fill-opacity:1;" d="M 165.027344 216.148438 L 153.828125 186.714844 C 151.316406 187.304688 130.246094 191.972656 123.191406 184.449219 C 120.773438 181.871094 120.300781 178.136719 121.789062 173.34375 L 125.90625 168.164062 L 126.035156 168.171875 C 127.589844 168.253906 164.199219 170.308594 166.710938 181.363281 C 168.824219 190.6875 172.691406 208.066406 173.824219 213.171875 C 174.0625 214.265625 173.464844 215.367188 172.417969 215.765625 L 167.914062 217.453125 C 167.664062 217.550781 167.398438 217.597656 167.128906 217.597656 C 166.195312 217.597656 165.359375 217.023438 165.027344 216.148438 Z M 165.027344 216.148438 "/>
<path style=" stroke:none;fill-rule:nonzero;fill:rgb(18.431373%,18.039216%,25.490196%);fill-opacity:1;" d="M 158.535156 219.648438 L 147.335938 190.214844 C 144.824219 190.804688 123.753906 195.472656 116.699219 187.949219 C 114.28125 185.371094 113.808594 181.636719 115.296875 176.84375 L 119.414062 171.664062 L 119.542969 171.671875 C 121.101562 171.753906 157.710938 173.808594 160.21875 184.863281 C 162.335938 194.1875 166.199219 211.566406 167.332031 216.671875 C 167.570312 217.765625 166.972656 218.867188 165.925781 219.265625 L 161.425781 220.953125 C 161.171875 221.050781 160.90625 221.097656 160.640625 221.097656 C 159.707031 221.097656 158.871094 220.523438 158.535156 219.648438 Z M 158.535156 219.648438 "/>
<path style=" stroke:none;fill-rule:nonzero;fill:rgb(62.745098%,38.039216%,41.568627%);fill-opacity:1;" d="M 173.667969 149.089844 C 173.503906 149.308594 173.355469 149.542969 173.226562 149.789062 L 148.601562 152.386719 L 145.054688 147.519531 L 137.019531 151.917969 L 143.984375 163.726562 L 174.1875 156.015625 C 175.746094 157.539062 178.085938 157.9375 180.058594 157.015625 C 182.035156 156.09375 183.234375 154.042969 183.070312 151.867188 C 182.910156 149.691406 181.417969 147.84375 179.328125 147.226562 C 177.238281 146.609375 174.984375 147.347656 173.667969 149.089844 Z M 173.667969 149.089844 "/>
<path style=" stroke:none;fill-rule:nonzero;fill:rgb(42.352941%,38.823529%,100%);fill-opacity:1;" d="M 115.136719 178.398438 C 114.449219 177.902344 114.101562 177.0625 114.230469 176.226562 C 115.621094 167.054688 114.019531 153.914062 112.433594 144.507812 C 111.777344 140.640625 112.988281 136.683594 115.699219 133.851562 C 118.414062 131.015625 122.308594 129.636719 126.195312 130.128906 C 127.867188 130.347656 129.519531 130.675781 131.144531 131.105469 C 136.714844 132.507812 140.570312 137.589844 140.425781 143.339844 C 140.1875 152.417969 142.027344 163.742188 142.832031 168.191406 C 142.941406 168.808594 142.789062 169.445312 142.414062 169.945312 C 142.046875 170.441406 141.484375 170.761719 140.867188 170.820312 C 131.976562 171.730469 122.386719 176.070312 117.464844 178.578125 C 117.144531 178.742188 116.796875 178.828125 116.441406 178.828125 C 115.972656 178.828125 115.515625 178.675781 115.136719 178.398438 Z M 115.136719 178.398438 "/>
<path style=" stroke:none;fill-rule:nonzero;fill:rgb(42.352941%,38.823529%,100%);fill-opacity:1;" d="M 139.140625 154.742188 C 138.585938 154.527344 138.140625 154.09375 137.90625 153.546875 L 132.945312 142.074219 C 131.683594 139.160156 133.023438 135.769531 135.933594 134.507812 C 138.847656 133.246094 142.230469 134.589844 143.488281 137.507812 L 148.445312 148.976562 C 148.9375 150.117188 148.414062 151.441406 147.277344 151.9375 L 140.859375 154.714844 C 140.3125 154.957031 139.695312 154.964844 139.140625 154.742188 Z M 139.140625 154.742188 "/>
<path style=" stroke:none;fill-rule:nonzero;fill:rgb(62.745098%,38.039216%,41.568627%);fill-opacity:1;" d="M 150.199219 148.089844 C 150.035156 148.308594 149.886719 148.542969 149.757812 148.789062 L 125.132812 151.386719 L 121.585938 146.519531 L 113.550781 150.917969 L 120.515625 162.726562 L 150.71875 155.015625 C 152.277344 156.539062 154.617188 156.9375 156.589844 156.015625 C 158.566406 155.09375 159.765625 153.042969 159.601562 150.867188 C 159.441406 148.691406 157.949219 146.84375 155.859375 146.226562 C 153.769531 145.609375 151.515625 146.347656 150.199219 148.089844 Z M 150.199219 148.089844 "/>
<path style=" stroke:none;fill-rule:nonzero;fill:rgb(42.352941%,38.823529%,100%);fill-opacity:1;" d="M 115.671875 155.242188 C 115.117188 155.027344 114.671875 154.59375 114.4375 154.046875 L 109.480469 142.574219 C 108.214844 139.660156 109.554688 136.269531 112.464844 135.007812 C 115.378906 133.746094 118.761719 135.089844 120.019531 138.007812 L 124.976562 149.476562 C 125.46875 150.617188 124.945312 151.941406 123.808594 152.4375 L 117.394531 155.214844 C 116.847656 155.457031 116.226562 155.464844 115.671875 155.242188 Z M 115.671875 155.242188 "/>
<path style=" stroke:none;fill-rule:nonzero;fill:rgb(62.745098%,38.039216%,41.568627%);fill-opacity:1;" d="M 137.546875 113.945312 C 137.546875 120.726562 132.058594 126.226562 125.285156 126.226562 C 118.511719 126.226562 113.019531 120.726562 113.019531 113.945312 C 113.019531 107.164062 118.511719 101.664062 125.285156 101.664062 C 132.058594 101.664062 137.546875 107.164062 137.546875 113.945312 Z M 137.546875 113.945312 "/>
<path style=" stroke:none;fill-rule:nonzero;fill:rgb(18.431373%,18.039216%,25.490196%);fill-opacity:1;" d="M 116.515625 122.375 C 116.410156 122.0625 116.453125 121.71875 116.632812 121.441406 C 116.816406 121.164062 117.113281 120.988281 117.441406 120.964844 C 118.113281 121 118.742188 121.3125 119.179688 121.820312 C 119.621094 122.335938 120.136719 122.777344 120.710938 123.140625 C 121.304688 123.441406 122.109375 123.398438 122.449219 122.828125 C 122.765625 122.289062 122.546875 121.570312 122.355469 120.949219 C 121.867188 119.363281 121.59375 117.722656 121.542969 116.066406 C 121.484375 114.214844 121.746094 112.285156 122.769531 110.839844 C 124.089844 108.976562 126.449219 108.269531 128.683594 108.324219 C 130.917969 108.375 133.117188 109.0625 135.328125 109.5 C 136.09375 109.652344 136.992188 109.726562 137.5 109.136719 C 138.046875 108.503906 137.84375 107.484375 137.613281 106.632812 C 137.015625 104.425781 136.378906 102.140625 134.984375 100.359375 C 133.480469 98.503906 131.328125 97.289062 128.964844 96.960938 C 126.695312 96.679688 124.390625 96.941406 122.242188 97.726562 C 118.738281 98.832031 115.660156 100.980469 113.410156 103.886719 C 111.09375 106.976562 110.09375 110.859375 110.625 114.6875 C 111.148438 118.019531 112.910156 121.03125 115.5625 123.113281 Z M 116.515625 122.375 "/>
<path style=" stroke:none;fill-rule:nonzero;fill:rgb(24.705882%,23.921569%,33.72549%);fill-opacity:1;" d="M 69.6875 151.9375 C 70.304688 145.285156 72.007812 138.78125 74.730469 132.679688 C 75.492188 130.980469 76.328125 129.320312 77.238281 127.699219 C 77.332031 127.523438 77.269531 127.300781 77.097656 127.203125 C 76.925781 127.101562 76.703125 127.15625 76.597656 127.324219 C 73.28125 133.234375 70.960938 139.652344 69.722656 146.316406 C 69.378906 148.175781 69.121094 150.050781 68.945312 151.9375 C 68.902344 152.414062 69.644531 152.410156 69.6875 151.9375 Z M 69.6875 151.9375 "/>
<path style=" stroke:none;fill-rule:nonzero;fill:rgb(42.352941%,38.823529%,100%);fill-opacity:1;" d="M 83.738281 124.183594 C 83.738281 126.785156 81.632812 128.890625 79.035156 128.890625 C 76.441406 128.890625 74.335938 126.785156 74.335938 124.183594 C 74.335938 121.585938 76.441406 119.476562 79.035156 119.476562 C 81.632812 119.476562 83.738281 121.585938 83.738281 124.183594 Z M 83.738281 124.183594 "/>
<path style=" stroke:none;fill-rule:nonzero;fill:rgb(24.705882%,23.921569%,33.72549%);fill-opacity:1;" d="M 70.167969 152.0625 C 70.570312 147.746094 71.675781 143.527344 73.441406 139.570312 C 73.933594 138.46875 74.476562 137.390625 75.066406 136.339844 C 75.128906 136.222656 75.089844 136.082031 74.976562 136.015625 C 74.863281 135.949219 74.722656 135.984375 74.652344 136.09375 C 72.5 139.929688 70.992188 144.089844 70.191406 148.414062 C 69.96875 149.621094 69.800781 150.839844 69.6875 152.0625 C 69.660156 152.371094 70.140625 152.371094 70.167969 152.0625 Z M 70.167969 152.0625 "/>
<path style=" stroke:none;fill-rule:nonzero;fill:rgb(42.352941%,38.823529%,100%);fill-opacity:1;" d="M 79.28125 134.058594 C 79.28125 135.746094 77.917969 137.113281 76.234375 137.113281 C 74.550781 137.113281 73.183594 135.746094 73.183594 134.058594 C 73.183594 132.371094 74.550781 131.003906 76.234375 131.003906 C 77.917969 131.003906 79.28125 132.371094 79.28125 134.058594 Z M 79.28125 134.058594 "/>
<path style=" stroke:none;fill-rule:nonzero;fill:rgb(24.705882%,23.921569%,33.72549%);fill-opacity:1;" d="M 69.5625 151.773438 C 67.226562 148.125 65.503906 144.117188 64.46875 139.910156 C 64.179688 138.738281 63.945312 137.554688 63.765625 136.359375 C 63.742188 136.230469 63.625 136.144531 63.496094 136.160156 C 63.367188 136.179688 63.273438 136.292969 63.289062 136.425781 C 63.945312 140.773438 65.316406 144.980469 67.339844 148.886719 C 67.902344 149.976562 68.519531 151.035156 69.183594 152.070312 C 69.347656 152.332031 69.726562 152.035156 69.5625 151.773438 Z M 69.5625 151.773438 "/>
<path style=" stroke:none;fill-rule:nonzero;fill:rgb(42.352941%,38.823529%,100%);fill-opacity:1;" d="M 66.332031 133.84375 C 66.332031 135.53125 64.96875 136.898438 63.285156 136.898438 C 61.597656 136.898438 60.234375 135.53125 60.234375 133.84375 C 60.234375 132.15625 61.597656 130.789062 63.285156 130.789062 C 64.96875 130.789062 66.332031 132.15625 66.332031 133.84375 Z M 66.332031 133.84375 "/>
<path style=" stroke:none;fill-rule:nonzero;fill:rgb(80%,80%,80%);fill-opacity:1;" d="M 60.199219 154.476562 L 60.199219 148.476562 C 60.199219 147.234375 61.207031 146.226562 62.445312 146.226562 L 76.429688 146.226562 C 77.667969 146.226562 78.671875 147.234375 78.675781 148.476562 L 78.675781 154.476562 C 78.671875 155.71875 77.667969 156.726562 76.429688 156.726562 L 62.445312 156.726562 C 61.207031 156.726562 60.199219 155.71875 60.199219 154.476562 Z M 60.199219 154.476562 "/>
<path style=" stroke:none;fill-rule:nonzero;fill:rgb(80%,80%,80%);fill-opacity:1;" d="M 146.085938 152.742188 L 185.535156 152.742188 C 186.5 152.742188 187.28125 153.523438 187.28125 154.492188 C 187.28125 155.457031 186.5 156.242188 185.535156 156.242188 L 146.085938 156.242188 C 145.121094 156.242188 144.339844 155.457031 144.339844 154.492188 C 144.339844 153.523438 145.121094 152.742188 146.085938 152.742188 Z M 146.085938 152.742188 "/>
<path style=" stroke:none;fill-rule:nonzero;fill:rgb(80%,80%,80%);fill-opacity:1;" d="M 212 156.242188 L 167.558594 156.242188 C 165.765625 156.238281 164.316406 154.785156 164.3125 152.992188 L 164.3125 128.492188 C 164.316406 126.695312 165.765625 125.242188 167.558594 125.242188 L 212 125.242188 C 213.789062 125.242188 215.242188 126.695312 215.242188 128.492188 L 215.242188 152.992188 C 215.242188 154.785156 213.789062 156.238281 212 156.242188 Z M 212 156.242188 "/>
<path style=" stroke:none;fill-rule:nonzero;fill:rgb(100%,100%,100%);fill-opacity:1;" d="M 192.773438 140.742188 C 192.773438 142.398438 191.433594 143.742188 189.777344 143.742188 C 188.125 143.742188 186.78125 142.398438 186.78125 140.742188 C 186.78125 139.085938 188.125 137.742188 189.777344 137.742188 C 191.433594 137.742188 192.773438 139.085938 192.773438 140.742188 Z M 192.773438 140.742188 "/>
<path style=" stroke:none;fill-rule:nonzero;fill:rgb(80%,80%,80%);fill-opacity:1;" d="M 325.09375 189.242188 C 325.09375 185.375 310.566406 182.242188 292.640625 182.242188 C 274.714844 182.242188 260.183594 185.375 260.183594 189.242188 C 260.183594 191.71875 266.15625 193.894531 275.164062 195.136719 L 275.164062 233.492188 C 275.164062 235.285156 276.617188 236.742188 278.410156 236.742188 C 280.203125 236.742188 281.65625 235.285156 281.65625 233.492188 L 281.65625 195.828125 C 285.085938 196.09375 288.78125 196.242188 292.640625 196.242188 C 296.496094 196.242188 300.191406 196.09375 303.625 195.828125 L 303.625 233.492188 C 303.625 235.285156 305.078125 236.742188 306.871094 236.742188 C 308.664062 236.742188 310.117188 235.285156 310.117188 233.492188 L 310.117188 195.136719 C 319.121094 193.894531 325.09375 191.71875 325.09375 189.242188 Z M 325.09375 189.242188 "/>
<path style=" stroke:none;fill-rule:nonzero;fill:rgb(18.431373%,18.039216%,25.490196%);fill-opacity:1;" d="M 310.210938 111.167969 C 310.210938 118.902344 303.949219 125.167969 296.226562 125.167969 C 288.507812 125.167969 282.246094 118.902344 282.246094 111.167969 C 282.246094 103.4375 288.507812 97.167969 296.226562 97.167969 C 303.949219 97.167969 310.210938 103.4375 310.210938 111.167969 Z M 310.210938 111.167969 "/>
<path style=" stroke:none;fill-rule:nonzero;fill:rgb(100%,72.156863%,72.156863%);fill-opacity:1;" d="M 261.433594 230.953125 L 255.3125 230.953125 L 252.402344 207.308594 L 261.4375 207.308594 Z M 261.433594 230.953125 "/>
<path style=" stroke:none;fill-rule:nonzero;fill:rgb(18.431373%,18.039216%,25.490196%);fill-opacity:1;" d="M 250.941406 229.203125 L 262.746094 229.203125 L 262.746094 236.644531 L 243.507812 236.644531 C 243.507812 232.535156 246.835938 229.203125 250.941406 229.203125 Z M 250.941406 229.203125 "/>
<path style=" stroke:none;fill-rule:nonzero;fill:rgb(100%,72.156863%,72.156863%);fill-opacity:1;" d="M 251.878906 227.53125 L 246.039062 225.695312 L 250.328125 202.265625 L 258.949219 204.972656 Z M 251.878906 227.53125 "/>
<path style=" stroke:none;fill-rule:nonzero;fill:rgb(18.431373%,18.039216%,25.490196%);fill-opacity:1;" d="M 242.390625 222.714844 L 253.65625 226.253906 L 251.429688 233.355469 L 233.070312 227.585938 C 234.300781 223.664062 238.472656 221.484375 242.390625 222.714844 Z M 242.390625 222.714844 "/>
<path style=" stroke:none;fill-rule:nonzero;fill:rgb(18.431373%,18.039216%,25.490196%);fill-opacity:1;" d="M 253.871094 218.097656 C 253.601562 218.097656 253.335938 218.050781 253.085938 217.953125 L 248.582031 216.265625 C 247.539062 215.867188 246.941406 214.765625 247.175781 213.671875 C 248.3125 208.566406 252.175781 191.1875 254.292969 181.863281 C 256.800781 170.808594 293.410156 168.753906 294.96875 168.671875 L 295.09375 168.664062 L 299.214844 173.84375 C 300.703125 178.636719 300.230469 182.371094 297.8125 184.949219 C 290.753906 192.472656 269.683594 187.804688 267.171875 187.214844 L 255.976562 216.648438 C 255.640625 217.523438 254.804688 218.097656 253.871094 218.097656 Z M 253.871094 218.097656 "/>
<path style=" stroke:none;fill-rule:nonzero;fill:rgb(18.431373%,18.039216%,25.490196%);fill-opacity:1;" d="M 260.363281 221.597656 C 260.09375 221.597656 259.828125 221.550781 259.578125 221.453125 L 255.074219 219.765625 C 254.027344 219.367188 253.429688 218.265625 253.667969 217.171875 C 254.800781 212.066406 258.667969 194.6875 260.78125 185.363281 C 263.292969 174.308594 299.902344 172.253906 301.457031 172.171875 L 301.585938 172.164062 L 305.703125 177.34375 C 307.191406 182.136719 306.722656 185.871094 304.300781 188.449219 C 297.246094 195.972656 276.175781 191.304688 273.664062 190.714844 L 262.464844 220.148438 C 262.132812 221.023438 261.296875 221.597656 260.363281 221.597656 Z M 260.363281 221.597656 "/>
<path style=" stroke:none;fill-rule:nonzero;fill:rgb(100%,72.156863%,72.156863%);fill-opacity:1;" d="M 247.332031 149.589844 C 247.496094 149.808594 247.644531 150.042969 247.773438 150.289062 L 272.402344 152.886719 L 275.945312 148.019531 L 283.980469 152.417969 L 277.019531 164.226562 L 246.816406 156.515625 C 245.253906 158.039062 242.914062 158.4375 240.941406 157.515625 C 238.964844 156.59375 237.765625 154.542969 237.929688 152.367188 C 238.09375 150.191406 239.582031 148.34375 241.671875 147.726562 C 243.761719 147.109375 246.015625 147.847656 247.332031 149.589844 Z M 247.332031 149.589844 "/>
<path style=" stroke:none;fill-rule:nonzero;fill:rgb(42.352941%,38.823529%,100%);fill-opacity:1;" d="M 304.5625 179.328125 C 304.207031 179.328125 303.855469 179.242188 303.539062 179.078125 C 298.613281 176.570312 289.023438 172.230469 280.132812 171.320312 C 279.515625 171.261719 278.957031 170.941406 278.585938 170.445312 C 278.210938 169.945312 278.058594 169.308594 278.171875 168.691406 C 278.972656 164.242188 280.8125 152.917969 280.578125 143.839844 C 280.433594 138.089844 284.285156 133.007812 289.855469 131.605469 C 291.484375 131.175781 293.136719 130.847656 294.804688 130.628906 C 298.695312 130.136719 302.585938 131.515625 305.300781 134.351562 C 308.011719 137.183594 309.222656 141.140625 308.566406 145.007812 C 306.980469 154.414062 305.382812 167.554688 306.769531 176.726562 C 306.902344 177.5625 306.550781 178.402344 305.863281 178.898438 C 305.484375 179.175781 305.03125 179.328125 304.5625 179.328125 Z M 304.5625 179.328125 "/>
<path style=" stroke:none;fill-rule:nonzero;fill:rgb(42.352941%,38.823529%,100%);fill-opacity:1;" d="M 281.03125 155.402344 C 280.726562 155.402344 280.421875 155.339844 280.140625 155.214844 L 273.726562 152.4375 C 272.585938 151.941406 272.0625 150.617188 272.554688 149.476562 L 277.515625 138.007812 C 278.773438 135.089844 282.15625 133.746094 285.066406 135.007812 C 287.980469 136.269531 289.316406 139.660156 288.054688 142.574219 L 283.09375 154.046875 C 282.738281 154.867188 281.929688 155.402344 281.03125 155.402344 Z M 281.03125 155.402344 "/>
<path style=" stroke:none;fill-rule:nonzero;fill:rgb(100%,72.156863%,72.156863%);fill-opacity:1;" d="M 307.980469 114.445312 C 307.980469 121.226562 302.492188 126.726562 295.71875 126.726562 C 288.945312 126.726562 283.453125 121.226562 283.453125 114.445312 C 283.453125 107.664062 288.945312 102.164062 295.71875 102.164062 C 302.492188 102.164062 307.980469 107.664062 307.980469 114.445312 Z M 307.980469 114.445312 "/>
<path style=" stroke:none;fill-rule:nonzero;fill:rgb(18.431373%,18.039216%,25.490196%);fill-opacity:1;" d="M 283.234375 108.410156 C 289.042969 111.960938 295.589844 114.125 302.371094 114.726562 L 300.351562 112.304688 C 301.820312 112.851562 303.367188 113.15625 304.933594 113.214844 C 306.496094 113.191406 308.132812 112.589844 309.019531 111.300781 C 309.824219 110 309.9375 108.386719 309.332031 106.984375 C 308.71875 105.605469 307.761719 104.410156 306.550781 103.503906 C 302.203125 100.0625 296.421875 99.027344 291.152344 100.75 C 289.371094 101.28125 287.777344 102.304688 286.550781 103.703125 C 285.386719 105.140625 283.148438 106.417969 283.746094 108.167969 Z M 283.234375 108.410156 "/>
<path style=" stroke:none;fill-rule:nonzero;fill:rgb(18.431373%,18.039216%,25.490196%);fill-opacity:1;" d="M 297.78125 98.5 C 293.910156 94.574219 289.230469 91.542969 284.066406 89.621094 C 280.75 88.390625 277.144531 87.632812 273.679688 88.332031 C 270.210938 89.027344 266.933594 91.429688 265.96875 94.835938 C 265.175781 97.617188 265.992188 100.617188 267.222656 103.238281 C 268.449219 105.859375 270.085938 108.289062 271.078125 111.007812 C 273.132812 116.644531 272.207031 122.9375 268.609375 127.738281 C 265.011719 132.539062 259.238281 135.191406 253.257812 134.789062 C 256.664062 135.246094 259.800781 136.847656 263.128906 137.699219 C 266.457031 138.554688 270.386719 138.496094 272.859375 136.109375 C 275.476562 133.582031 275.527344 129.476562 275.402344 125.835938 L 274.839844 109.613281 C 274.742188 106.855469 274.660156 104.011719 275.652344 101.4375 C 276.648438 98.863281 279.007812 96.609375 281.761719 96.632812 C 283.851562 96.648438 285.699219 97.917969 287.375 99.167969 C 289.050781 100.414062 290.820312 101.75 292.902344 101.933594 C 294.980469 102.121094 297.359375 100.578125 297.203125 98.492188 "/>
<path style=" stroke:none;fill-rule:nonzero;fill:rgb(90.196078%,90.196078%,90.196078%);fill-opacity:1;" d="M 240.773438 140.542969 L 269.011719 141.210938 L 273.101562 171.4375 L 247.023438 172.023438 Z M 240.773438 140.542969 "/>
<path style=" stroke:none;fill-rule:nonzero;fill:rgb(100%,72.156863%,72.156863%);fill-opacity:1;" d="M 270.800781 148.589844 C 270.964844 148.808594 271.113281 149.042969 271.242188 149.289062 L 295.871094 151.886719 L 299.414062 147.019531 L 307.449219 151.417969 L 300.484375 163.226562 L 270.28125 155.515625 C 268.722656 157.039062 266.382812 157.4375 264.410156 156.515625 C 262.433594 155.59375 261.234375 153.542969 261.398438 151.367188 C 261.5625 149.191406 263.050781 147.34375 265.140625 146.726562 C 267.230469 146.109375 269.484375 146.847656 270.800781 148.589844 Z M 270.800781 148.589844 "/>
<path style=" stroke:none;fill-rule:nonzero;fill:rgb(42.352941%,38.823529%,100%);fill-opacity:1;" d="M 304.5 155.902344 C 304.195312 155.902344 303.890625 155.839844 303.609375 155.714844 L 297.191406 152.9375 C 296.054688 152.441406 295.53125 151.117188 296.023438 149.976562 L 300.984375 138.507812 C 302.242188 135.589844 305.625 134.246094 308.535156 135.507812 C 311.449219 136.769531 312.785156 140.160156 311.523438 143.074219 L 306.5625 154.546875 C 306.207031 155.367188 305.398438 155.902344 304.5 155.902344 Z M 304.5 155.902344 "/>
<path style=" stroke:none;fill-rule:nonzero;fill:rgb(24.705882%,23.921569%,33.72549%);fill-opacity:1;" d="M 246.453125 155.742188 L 47.71875 155.742188 C 45.929688 155.742188 44.476562 157.195312 44.476562 158.992188 C 44.476562 160.785156 45.929688 162.242188 47.71875 162.242188 L 53.460938 162.242188 L 53.460938 232.992188 C 53.460938 234.785156 54.914062 236.242188 56.707031 236.242188 C 58.5 236.242188 59.953125 234.785156 59.953125 232.992188 L 59.953125 168.484375 L 96.339844 234.523438 C 97.238281 236.074219 99.21875 236.605469 100.769531 235.710938 C 102.320312 234.8125 102.855469 232.828125 101.960938 231.273438 L 63.925781 162.242188 L 237.714844 162.242188 L 237.714844 162.285156 L 199.699219 231.273438 C 198.804688 232.828125 199.335938 234.816406 200.886719 235.714844 C 202.441406 236.613281 204.425781 236.078125 205.320312 234.523438 L 237.714844 175.734375 L 237.714844 232.992188 C 237.714844 234.785156 239.167969 236.242188 240.960938 236.242188 C 242.75 236.242188 244.203125 234.785156 244.203125 232.992188 L 244.203125 163.953125 L 245.148438 162.242188 L 246.453125 162.242188 C 248.246094 162.242188 249.699219 160.785156 249.699219 158.992188 C 249.699219 157.195312 248.246094 155.742188 246.453125 155.742188 Z M 246.453125 155.742188 "/>
<path style=" stroke:none;fill-rule:nonzero;fill:rgb(24.705882%,23.921569%,33.72549%);fill-opacity:1;" d="M 369.242188 236.972656 L 0.59375 236.972656 C 0.265625 236.972656 0 236.707031 0 236.378906 C 0 236.050781 0.265625 235.785156 0.59375 235.785156 L 369.242188 235.785156 C 369.570312 235.785156 369.839844 236.050781 369.839844 236.378906 C 369.839844 236.707031 369.570312 236.972656 369.242188 236.972656 Z M 369.242188 236.972656 "/>
</g>
</svg>
