<?xml version="1.0" encoding="UTF-8"?>
<svg xmlns="http://www.w3.org/2000/svg" xmlns:xlink="http://www.w3.org/1999/xlink" width="px" height="px" viewBox="0 0 405 232" version="1.1">
<g id="surface1">
<path style=" stroke:none;fill-rule:nonzero;fill:rgb(94.117647%,94.117647%,94.117647%);fill-opacity:1;" d="M 66.542969 105.390625 L 66.542969 40.25 C 66.542969 38.3125 68.109375 36.742188 70.042969 36.742188 C 71.976562 36.742188 73.542969 38.3125 73.542969 40.25 L 73.542969 105.390625 C 73.542969 107.328125 71.976562 108.898438 70.042969 108.898438 C 68.109375 108.898438 66.542969 107.328125 66.542969 105.390625 Z M 66.542969 105.390625 "/>
<path style=" stroke:none;fill-rule:nonzero;fill:rgb(94.117647%,94.117647%,94.117647%);fill-opacity:1;" d="M 58.167969 105.390625 L 58.167969 40.25 C 58.167969 38.3125 59.734375 36.742188 61.667969 36.742188 C 63.601562 36.742188 65.167969 38.3125 65.167969 40.25 L 65.167969 105.390625 C 65.167969 107.328125 63.601562 108.898438 61.667969 108.898438 C 59.734375 108.898438 58.167969 107.328125 58.167969 105.390625 Z M 58.167969 105.390625 "/>
<path style=" stroke:none;fill-rule:nonzero;fill:rgb(94.117647%,94.117647%,94.117647%);fill-opacity:1;" d="M 49.792969 105.390625 L 49.792969 40.25 C 49.792969 38.3125 51.359375 36.742188 53.292969 36.742188 C 55.226562 36.742188 56.792969 38.3125 56.792969 40.25 L 56.792969 105.390625 C 56.792969 107.328125 55.226562 108.898438 53.292969 108.898438 C 51.359375 108.898438 49.792969 107.328125 49.792969 105.390625 Z M 49.792969 105.390625 "/>
<path style=" stroke:none;fill-rule:nonzero;fill:rgb(90.196078%,90.196078%,90.196078%);fill-opacity:1;" d="M 365.996094 209.433594 C 364.585938 209.433594 363.1875 209.191406 361.859375 208.714844 L 361.65625 208.640625 L 361.75 208.1875 C 359.375 203.375 360.203125 196.785156 363.875 191.367188 C 367.214844 186.441406 372.292969 182.859375 376.769531 179.699219 C 377.933594 178.878906 379.476562 178.847656 380.667969 179.625 C 381.863281 180.398438 382.464844 181.824219 382.195312 183.222656 L 380.59375 191.457031 C 379.4375 197.394531 378.0625 203.019531 373.984375 206.523438 C 371.742188 208.402344 368.917969 209.433594 365.996094 209.433594 Z M 365.996094 209.433594 "/>
<path style=" stroke:none;fill-rule:nonzero;fill:rgb(90.196078%,90.196078%,90.196078%);fill-opacity:1;" d="M 376.484375 223.664062 C 373.332031 223.644531 370.40625 222.027344 368.703125 219.371094 L 368.585938 219.191406 L 368.863281 218.945312 C 369.578125 215.027344 372.949219 211.535156 377.472656 210.035156 C 381.585938 208.671875 386.128906 208.894531 390.128906 209.089844 C 391.210938 209.144531 392.15625 209.84375 392.519531 210.867188 C 392.882812 211.890625 392.597656 213.03125 391.792969 213.757812 L 387.289062 217.832031 C 384.015625 220.792969 380.75 223.464844 376.8125 223.65625 C 376.703125 223.660156 376.59375 223.664062 376.484375 223.664062 Z M 376.484375 223.664062 "/>
<path style=" stroke:none;fill-rule:nonzero;fill:rgb(94.901961%,94.901961%,94.901961%);fill-opacity:1;" d="M 362.507812 228.019531 C 361.839844 223.054688 361.15625 218.027344 361.625 213.011719 C 362.039062 208.554688 363.367188 204.203125 366.066406 200.636719 C 367.492188 198.753906 369.238281 197.132812 371.222656 195.851562 C 371.738281 195.515625 372.210938 196.355469 371.699219 196.6875 C 368.257812 198.921875 365.613281 202.191406 364.140625 206.027344 C 362.496094 210.3125 362.234375 214.984375 362.515625 219.539062 C 362.6875 222.292969 363.050781 225.027344 363.417969 227.761719 C 363.480469 228.015625 363.335938 228.273438 363.085938 228.355469 C 362.964844 228.386719 362.835938 228.371094 362.726562 228.308594 C 362.617188 228.246094 362.539062 228.140625 362.507812 228.019531 Z M 362.507812 228.019531 "/>
<path style=" stroke:none;fill-rule:nonzero;fill:rgb(94.901961%,94.901961%,94.901961%);fill-opacity:1;" d="M 360.628906 230.871094 C 363.828125 225.066406 367.542969 218.617188 374.175781 216.558594 C 376.019531 215.984375 377.953125 215.78125 379.875 215.953125 C 380.480469 216.007812 380.328125 216.964844 379.726562 216.910156 C 376.5 216.636719 373.28125 217.511719 370.628906 219.375 C 368.066406 221.164062 366.070312 223.648438 364.378906 226.285156 C 363.34375 227.902344 362.417969 229.585938 361.488281 231.265625 C 361.195312 231.800781 360.328125 231.414062 360.628906 230.871094 Z M 360.628906 230.871094 "/>
<path style=" stroke:none;fill-rule:nonzero;fill:rgb(79.215686%,79.215686%,79.215686%);fill-opacity:1;" d="M 359.1875 230.785156 L 362.417969 230.859375 L 342.929688 126.515625 L 339.695312 127.125 L 344.785156 154.195312 L 328.390625 154.195312 L 333.476562 127.125 L 330.246094 126.515625 L 310.917969 230.859375 L 313.988281 230.785156 L 324.148438 176.742188 L 349.023438 176.742188 Z M 324.902344 172.734375 L 327.636719 158.203125 L 345.539062 158.203125 L 348.273438 172.734375 Z M 324.902344 172.734375 "/>
<path style=" stroke:none;fill-rule:nonzero;fill:rgb(94.117647%,94.117647%,94.117647%);fill-opacity:1;" d="M 218.042969 107.054688 L 218.042969 72.785156 C 218.042969 71.769531 219.613281 70.941406 221.542969 70.941406 C 223.472656 70.941406 225.042969 71.769531 225.042969 72.785156 L 225.042969 107.054688 C 225.042969 108.070312 223.472656 108.898438 221.542969 108.898438 C 219.613281 108.898438 218.042969 108.070312 218.042969 107.054688 Z M 218.042969 107.054688 "/>
<path style=" stroke:none;fill-rule:nonzero;fill:rgb(94.117647%,94.117647%,94.117647%);fill-opacity:1;" d="M 209.667969 107.054688 L 209.667969 72.785156 C 209.667969 71.769531 211.238281 70.941406 213.167969 70.941406 C 215.097656 70.941406 216.667969 71.769531 216.667969 72.785156 L 216.667969 107.054688 C 216.667969 108.070312 215.097656 108.898438 213.167969 108.898438 C 211.238281 108.898438 209.667969 108.070312 209.667969 107.054688 Z M 209.667969 107.054688 "/>
<path style=" stroke:none;fill-rule:nonzero;fill:rgb(94.117647%,94.117647%,94.117647%);fill-opacity:1;" d="M 201.292969 107.054688 L 201.292969 72.785156 C 201.292969 71.769531 202.863281 70.941406 204.792969 70.941406 C 206.722656 70.941406 208.292969 71.769531 208.292969 72.785156 L 208.292969 107.054688 C 208.292969 108.070312 206.722656 108.898438 204.792969 108.898438 C 202.863281 108.898438 201.292969 108.070312 201.292969 107.054688 Z M 201.292969 107.054688 "/>
<path style=" stroke:none;fill-rule:nonzero;fill:rgb(80%,80%,80%);fill-opacity:1;" d="M 271.75 81.851562 C 271.71875 81.644531 271.601562 81.457031 271.421875 81.339844 L 245.035156 63.882812 C 245.433594 63.714844 245.765625 63.421875 245.984375 63.050781 C 246.53125 62.089844 246.207031 60.867188 245.25 60.3125 L 243.085938 59.058594 C 242.128906 58.507812 240.910156 58.835938 240.355469 59.792969 C 240.210938 60.046875 240.125 60.324219 240.101562 60.617188 L 221.054688 48.015625 C 219.757812 44.871094 217.148438 42.460938 213.917969 41.421875 L 213.917969 35.867188 L 206.917969 35.867188 L 206.917969 41.421875 C 202.152344 42.949219 198.917969 47.386719 198.917969 52.402344 L 198.917969 53.90625 L 205.917969 53.90625 C 205.917969 56.394531 207.933594 58.414062 210.417969 58.414062 C 212.902344 58.414062 214.917969 56.394531 214.917969 53.90625 L 221.917969 53.90625 L 221.917969 52.402344 C 221.917969 51.679688 221.851562 50.960938 221.714844 50.253906 L 269.902344 82.132812 L 249.886719 106.519531 C 249.730469 106.519531 249.574219 106.519531 249.417969 106.519531 C 247.820312 106.519531 246.273438 106.554688 244.800781 106.621094 C 244.890625 106.375 244.929688 106.109375 244.914062 105.847656 C 244.855469 104.742188 243.914062 103.894531 242.8125 103.949219 L 240.316406 104.082031 C 239.214844 104.140625 238.367188 105.082031 238.421875 106.1875 C 238.441406 106.5 238.535156 106.804688 238.695312 107.074219 C 234.28125 107.542969 231.417969 108.191406 231.417969 108.523438 C 231.417969 109.0625 239.101562 108.546875 248.714844 108.523438 C 248.804688 108.777344 249.023438 108.964844 249.289062 109.011719 C 249.554688 109.058594 249.828125 108.957031 249.996094 108.75 L 250.183594 108.523438 C 259.769531 108.550781 267.417969 109.0625 267.417969 108.523438 C 267.417969 108.015625 260.617188 106.75 251.804688 106.546875 L 271.589844 82.441406 C 271.722656 82.277344 271.78125 82.0625 271.75 81.851562 Z M 271.75 81.851562 "/>
<path style=" stroke:none;fill-rule:nonzero;fill:rgb(89.411765%,89.411765%,89.411765%);fill-opacity:1;" d="M 272.472656 231.035156 L 210.863281 231.035156 C 208.273438 231.035156 206.171875 228.929688 206.167969 226.332031 L 206.167969 125.003906 C 206.167969 122.683594 204.289062 120.800781 201.972656 120.800781 L 57.863281 120.800781 C 55.546875 120.800781 53.671875 122.683594 53.667969 125.003906 L 53.667969 226.332031 C 53.664062 228.929688 51.566406 231.035156 48.972656 231.035156 L 46.863281 231.035156 C 44.273438 231.035156 42.171875 228.929688 42.167969 226.332031 L 42.167969 119.546875 C 42.175781 113.324219 47.207031 108.277344 53.417969 108.273438 L 265.917969 108.273438 C 272.128906 108.277344 277.160156 113.324219 277.167969 119.546875 L 277.167969 226.332031 C 277.164062 228.929688 275.066406 231.035156 272.472656 231.035156 Z M 272.472656 231.035156 "/>
<path style=" stroke:none;fill-rule:nonzero;fill:rgb(100%,100%,100%);fill-opacity:1;" d="M 206.417969 134.578125 L 276.917969 134.578125 L 276.917969 137.585938 L 206.417969 137.585938 Z M 206.417969 134.578125 "/>
<path style=" stroke:none;fill-rule:nonzero;fill:rgb(100%,100%,100%);fill-opacity:1;" d="M 206.417969 175.167969 L 276.917969 175.167969 L 276.917969 178.171875 L 206.417969 178.171875 Z M 206.417969 175.167969 "/>
<path style=" stroke:none;fill-rule:nonzero;fill:rgb(90.196078%,90.196078%,90.196078%);fill-opacity:1;" d="M 148.0625 107.777344 L 146.035156 106.921875 L 144.644531 96.742188 L 126.132812 96.742188 L 124.628906 106.878906 L 122.816406 107.789062 C 122.636719 107.878906 122.542969 108.078125 122.589844 108.273438 C 122.632812 108.46875 122.808594 108.605469 123.007812 108.605469 L 147.894531 108.605469 C 148.097656 108.605469 148.273438 108.460938 148.316406 108.261719 C 148.355469 108.058594 148.25 107.855469 148.0625 107.777344 Z M 148.0625 107.777344 "/>
<path style=" stroke:none;fill-rule:nonzero;fill:rgb(80%,80%,80%);fill-opacity:1;" d="M 180.953125 98.097656 L 90.027344 98.097656 C 89.035156 98.09375 88.230469 97.289062 88.230469 96.292969 L 88.230469 83.441406 L 182.75 83.441406 L 182.75 96.292969 C 182.75 97.289062 181.949219 98.09375 180.953125 98.097656 Z M 180.953125 98.097656 "/>
<path style=" stroke:none;fill-rule:nonzero;fill:rgb(24.705882%,23.921569%,33.72549%);fill-opacity:1;" d="M 182.847656 89.515625 L 88.148438 89.515625 L 88.148438 34.535156 C 88.148438 33.332031 89.121094 32.359375 90.320312 32.359375 L 180.675781 32.359375 C 181.875 32.359375 182.84375 33.332031 182.847656 34.535156 Z M 182.847656 89.515625 "/>
<path style=" stroke:none;fill-rule:nonzero;fill:rgb(100%,100%,100%);fill-opacity:1;" d="M 177.191406 85.523438 L 93.804688 85.523438 C 92.878906 85.523438 92.128906 84.773438 92.128906 83.847656 L 92.128906 38.027344 C 92.128906 37.101562 92.878906 36.351562 93.804688 36.347656 L 177.191406 36.347656 C 178.113281 36.351562 178.863281 37.101562 178.863281 38.027344 L 178.863281 83.847656 C 178.863281 84.773438 178.113281 85.523438 177.191406 85.523438 Z M 177.191406 85.523438 "/>
<path style=" stroke:none;fill-rule:nonzero;fill:rgb(61.960784%,38.039216%,41.568627%);fill-opacity:1;" d="M 270.667969 41.609375 C 272.285156 41.375 273.917969 41.871094 275.132812 42.960938 C 276.347656 44.054688 277.019531 45.628906 276.964844 47.261719 L 295.246094 54.3125 L 286.964844 60.246094 L 270.875 52.640625 C 268.078125 52.359375 265.933594 50.027344 265.882812 47.214844 C 265.832031 44.402344 267.886719 41.992188 270.667969 41.609375 Z M 270.667969 41.609375 "/>
<path style=" stroke:none;fill-rule:nonzero;fill:rgb(89.411765%,89.411765%,89.411765%);fill-opacity:1;" d="M 340.089844 38.148438 L 343.179688 43.78125 C 342.433594 47.355469 340.503906 50.574219 337.699219 52.90625 C 332.964844 56.910156 308.203125 71.816406 308.203125 71.816406 L 276.945312 56.089844 L 282.414062 48.808594 L 306.953125 57.050781 C 316.058594 48.433594 327.042969 42.070312 339.039062 38.464844 Z M 340.089844 38.148438 "/>
<path style=" stroke:none;fill-rule:nonzero;fill:rgb(79.215686%,79.215686%,79.215686%);fill-opacity:1;" d="M 358.734375 123.433594 C 358.734375 119.035156 347.808594 115.46875 334.335938 115.46875 C 320.863281 115.46875 309.941406 119.035156 309.941406 123.433594 C 309.941406 127.832031 320.863281 131.398438 334.335938 131.398438 C 347.808594 131.398438 358.734375 127.832031 358.734375 123.433594 Z M 358.734375 123.433594 "/>
<path style=" stroke:none;fill-rule:nonzero;fill:rgb(61.960784%,38.039216%,41.568627%);fill-opacity:1;" d="M 279.609375 224.035156 L 273.128906 222.242188 L 276.953125 196.347656 L 286.515625 198.996094 Z M 279.609375 224.035156 "/>
<path style=" stroke:none;fill-rule:nonzero;fill:rgb(18.431373%,18.039216%,25.490196%);fill-opacity:1;" d="M 279.523438 230.785156 L 258.636719 225 L 258.710938 224.734375 C 259.953125 220.234375 264.597656 217.597656 269.085938 218.839844 L 281.84375 222.375 Z M 279.523438 230.785156 "/>
<path style=" stroke:none;fill-rule:nonzero;fill:rgb(61.960784%,38.039216%,41.568627%);fill-opacity:1;" d="M 260.828125 224.121094 L 254.679688 221.398438 L 262.222656 196.339844 L 271.296875 200.355469 Z M 260.828125 224.121094 "/>
<path style=" stroke:none;fill-rule:nonzero;fill:rgb(18.431373%,18.039216%,25.490196%);fill-opacity:1;" d="M 259.761719 230.785156 L 239.9375 222.011719 L 240.050781 221.761719 C 241.929688 217.492188 246.910156 215.558594 251.171875 217.445312 L 263.28125 222.800781 Z M 259.761719 230.785156 "/>
<path style=" stroke:none;fill-rule:nonzero;fill:rgb(18.431373%,18.039216%,25.490196%);fill-opacity:1;" d="M 353.324219 103.957031 C 353.324219 103.957031 356.582031 114.074219 336.585938 126.871094 L 310.835938 152.585938 L 284.082031 216.726562 L 268.195312 209.589844 L 271.3125 201.257812 L 273.402344 195.664062 L 274.472656 192.804688 L 275.617188 189.738281 L 292.625 144.246094 L 306.910156 119.179688 L 307.324219 105.578125 L 310.835938 95.992188 L 336.328125 86.925781 Z M 353.324219 103.957031 "/>
<path style=" stroke:none;fill-rule:nonzero;fill:rgb(18.431373%,18.039216%,25.490196%);fill-opacity:1;" d="M 340.324219 104.457031 C 340.324219 104.457031 343.582031 114.578125 323.585938 127.371094 L 297.835938 153.085938 L 271.082031 217.230469 L 255.195312 210.09375 L 258.3125 201.757812 L 260.402344 196.164062 L 261.472656 193.304688 L 262.617188 190.238281 L 279.625 144.746094 L 284.40625 136.355469 C 290.714844 125.28125 298.382812 115.042969 307.230469 105.878906 L 311.917969 101.023438 L 312.417969 93.507812 L 323.328125 87.425781 Z M 340.324219 104.457031 "/>
<path style=" stroke:none;fill-rule:nonzero;fill:rgb(89.411765%,89.411765%,89.411765%);fill-opacity:1;" d="M 324.917969 54.925781 L 332.917969 37.886719 L 346.878906 35.980469 C 346.878906 35.980469 357.78125 49.898438 354.917969 69.457031 C 353.84375 76.789062 352.972656 84.089844 352.917969 90.5 C 352.90625 92.207031 354.394531 92.96875 354.417969 94.507812 C 354.445312 96.023438 351.597656 98.492188 352.417969 99.519531 C 353.59375 100.9375 354.292969 102.691406 354.417969 104.53125 C 353.429688 106.894531 323.441406 94.089844 310.835938 95.992188 Z M 324.917969 54.925781 "/>
<path style=" stroke:none;fill-rule:nonzero;fill:rgb(61.960784%,38.039216%,41.568627%);fill-opacity:1;" d="M 340.347656 10.058594 C 346.339844 13.628906 348.3125 21.394531 344.746094 27.402344 C 341.183594 33.410156 333.4375 35.382812 327.441406 31.8125 C 321.445312 28.242188 319.476562 20.476562 323.039062 14.46875 C 326.601562 8.460938 334.351562 6.488281 340.347656 10.058594 Z M 340.347656 10.058594 "/>
<path style=" stroke:none;fill-rule:nonzero;fill:rgb(18.431373%,18.039216%,25.490196%);fill-opacity:1;" d="M 341.964844 16.390625 C 341.941406 16.726562 341.910156 17.164062 341.871094 17.664062 C 341.832031 19.03125 342.214844 20.375 342.96875 21.511719 C 343.675781 22.710938 342.832031 29.941406 342.832031 29.941406 C 363.515625 15.492188 347.175781 0.976562 340.78125 2.265625 C 340.914062 0.429688 335.699219 1.15625 335.699219 1.15625 C 333.714844 -1.945312 329.359375 2.171875 329.359375 2.171875 L 330.199219 0.753906 C 326.820312 1.617188 323.476562 12.085938 323.476562 12.085938 C 324.625 16.605469 342.101562 14.554688 341.964844 16.390625 Z M 341.964844 16.390625 "/>
<path style=" stroke:none;fill-rule:nonzero;fill:rgb(80%,80%,80%);fill-opacity:1;" d="M 261.726562 61.625 C 268.835938 52.152344 274.453125 41.640625 278.386719 30.464844 C 278.859375 29.082031 278.265625 27.5625 276.980469 26.871094 L 252.660156 13.808594 C 251.863281 13.378906 250.910156 13.339844 250.082031 13.707031 C 249.234375 14.074219 248.609375 14.8125 248.378906 15.707031 C 245.546875 26.476562 240.226562 36.429688 232.84375 44.757812 C 232.226562 45.445312 231.964844 46.378906 232.125 47.289062 C 232.28125 48.183594 232.839844 48.953125 233.640625 49.382812 L 257.964844 62.441406 C 259.25 63.128906 260.839844 62.785156 261.726562 61.625 Z M 261.726562 61.625 "/>
<path style=" stroke:none;fill-rule:nonzero;fill:rgb(100%,100%,100%);fill-opacity:1;" d="M 260.066406 60.375 C 259.796875 60.714844 259.324219 60.8125 258.945312 60.609375 L 234.621094 47.546875 C 234.382812 47.421875 234.214844 47.191406 234.167969 46.925781 C 234.117188 46.644531 234.203125 46.355469 234.394531 46.144531 C 241.992188 37.570312 247.472656 27.324219 250.386719 16.234375 C 250.453125 15.957031 250.648438 15.726562 250.910156 15.613281 C 251.15625 15.5 251.441406 15.511719 251.679688 15.644531 L 276 28.703125 C 276.382812 28.910156 276.5625 29.359375 276.429688 29.769531 C 272.566406 40.75 267.046875 51.070312 260.066406 60.375 Z M 260.066406 60.375 "/>
<path style=" stroke:none;fill-rule:nonzero;fill:rgb(42.352941%,38.823529%,100%);fill-opacity:1;" d="M 251.558594 28.054688 L 268.332031 37.90625 C 270.003906 38.886719 271.515625 36.289062 269.847656 35.3125 L 253.070312 25.457031 C 251.402344 24.476562 249.890625 27.074219 251.558594 28.054688 Z M 251.558594 28.054688 "/>
<path style=" stroke:none;fill-rule:nonzero;fill:rgb(42.352941%,38.823529%,100%);fill-opacity:1;" d="M 248.558594 33.566406 L 265.332031 43.417969 C 267.003906 44.398438 268.515625 41.800781 266.847656 40.824219 L 250.070312 30.96875 C 248.402344 29.988281 246.890625 32.585938 248.558594 33.566406 Z M 248.558594 33.566406 "/>
<path style=" stroke:none;fill-rule:nonzero;fill:rgb(42.352941%,38.823529%,100%);fill-opacity:1;" d="M 245.058594 39.578125 L 261.832031 49.433594 C 263.503906 50.414062 265.015625 47.816406 263.347656 46.835938 L 246.570312 36.980469 C 244.902344 36 243.390625 38.597656 245.058594 39.578125 Z M 245.058594 39.578125 "/>
<path style=" stroke:none;fill-rule:nonzero;fill:rgb(42.352941%,38.823529%,100%);fill-opacity:1;" d="M 241.558594 44.589844 L 258.332031 54.441406 C 260.003906 55.421875 261.515625 52.824219 259.847656 51.847656 L 243.070312 41.992188 C 241.402344 41.011719 239.890625 43.609375 241.558594 44.589844 Z M 241.558594 44.589844 "/>
<path style=" stroke:none;fill-rule:nonzero;fill:rgb(42.352941%,38.823529%,100%);fill-opacity:1;" d="M 318.035156 102.554688 L 324.332031 116.746094 C 324.640625 117.4375 324.582031 118.238281 324.171875 118.871094 C 323.691406 119.636719 322.792969 120.039062 321.902344 119.882812 C 321.753906 119.863281 321.609375 119.824219 321.46875 119.769531 C 320.914062 119.554688 320.464844 119.125 320.222656 118.578125 L 313.921875 104.386719 C 313.417969 103.246094 313.929688 101.914062 315.066406 101.410156 C 316.199219 100.902344 317.53125 101.414062 318.035156 102.554688 Z M 318.035156 102.554688 "/>
<path style=" stroke:none;fill-rule:nonzero;fill:rgb(24.705882%,23.921569%,33.72549%);fill-opacity:1;" d="M 323.824219 115.601562 L 325.085938 118.464844 L 325.730469 122.527344 C 325.820312 123.078125 325.527344 123.617188 325.019531 123.84375 C 324.511719 124.070312 323.917969 123.925781 323.566406 123.492188 L 320.957031 120.234375 L 319.714844 117.433594 Z M 323.824219 115.601562 "/>
<path style=" stroke:none;fill-rule:nonzero;fill:rgb(24.705882%,23.921569%,33.72549%);fill-opacity:1;" d="M 312.523438 98.605469 L 313.425781 104.285156 C 313.484375 104.664062 313.71875 104.992188 314.050781 105.171875 C 314.386719 105.355469 314.785156 105.371094 315.136719 105.214844 L 316.03125 104.816406 L 317.757812 108.710938 C 317.871094 108.960938 318.164062 109.074219 318.417969 108.960938 C 318.667969 108.851562 318.78125 108.554688 318.671875 108.300781 L 316.945312 104.410156 L 317.839844 104.011719 C 318.457031 103.734375 318.734375 103.011719 318.460938 102.390625 C 318.417969 102.292969 318.363281 102.199219 318.292969 102.117188 L 314.6875 97.640625 C 314.339844 97.207031 313.742188 97.0625 313.234375 97.289062 C 312.726562 97.515625 312.4375 98.054688 312.523438 98.605469 Z M 312.523438 98.605469 "/>
<path style=" stroke:none;fill-rule:nonzero;fill:rgb(61.960784%,38.039216%,41.568627%);fill-opacity:1;" d="M 315.136719 108.859375 C 315.421875 107.25 316.40625 105.851562 317.824219 105.039062 C 319.238281 104.226562 320.941406 104.085938 322.472656 104.652344 L 334.90625 89.480469 L 337.914062 99.222656 L 325.648438 112.136719 C 324.503906 114.707031 321.621094 116.015625 318.9375 115.175781 C 316.257812 114.339844 314.625 111.628906 315.136719 108.859375 Z M 315.136719 108.859375 "/>
<path style=" stroke:none;fill-rule:nonzero;fill:rgb(89.411765%,89.411765%,89.411765%);fill-opacity:1;" d="M 330.789062 107.875 L 325.3125 99.949219 L 340.863281 79.171875 L 332.851562 61.96875 L 333.433594 41.507812 L 340.054688 40.28125 L 340.136719 40.324219 C 343.355469 42.179688 345.84375 45.082031 347.1875 48.550781 C 348.835938 52.6875 352.523438 68.21875 354.574219 77.109375 C 355.394531 80.609375 354.339844 84.289062 351.792969 86.824219 Z M 330.789062 107.875 "/>
<path style=" stroke:none;fill-rule:nonzero;fill:rgb(100%,71.372549%,71.372549%);fill-opacity:1;" d="M 176.605469 69.574219 C 176.5625 69.957031 176.546875 70.347656 176.5625 70.734375 L 148.523438 91.175781 L 140.824219 87.757812 L 134.160156 98.734375 L 147.207031 106.109375 C 149.375 107.332031 152.085938 106.976562 153.863281 105.238281 L 182.082031 77.617188 C 185.039062 78.367188 188.152344 77.210938 189.902344 74.703125 C 191.652344 72.199219 191.671875 68.867188 189.949219 66.34375 C 188.230469 63.816406 185.132812 62.621094 182.164062 63.339844 C 179.199219 64.054688 176.988281 66.539062 176.605469 69.574219 Z M 176.605469 69.574219 "/>
<path style=" stroke:none;fill-rule:nonzero;fill:rgb(42.352941%,38.823529%,100%);fill-opacity:1;" d="M 147.617188 91.921875 L 139.441406 105.574219 C 138.972656 106.359375 138.183594 106.902344 137.28125 107.058594 C 136.378906 107.214844 135.457031 106.972656 134.75 106.390625 L 122.507812 96.3125 C 118.394531 93.804688 117.078125 88.433594 119.566406 84.304688 C 122.058594 80.175781 127.414062 78.839844 131.542969 81.324219 L 146.128906 87.386719 C 146.972656 87.738281 147.621094 88.441406 147.910156 89.3125 C 148.195312 90.183594 148.089844 91.136719 147.617188 91.921875 Z M 147.617188 91.921875 "/>
<path style=" stroke:none;fill-rule:nonzero;fill:rgb(79.215686%,79.215686%,79.215686%);fill-opacity:1;" d="M 128.613281 210.59375 L 112.585938 210.59375 L 112.585938 183.980469 L 128.613281 183.980469 Z M 128.613281 210.59375 "/>
<path style=" stroke:none;fill-rule:nonzero;fill:rgb(79.215686%,79.215686%,79.215686%);fill-opacity:1;" d="M 125.753906 201.101562 L 127.808594 198.0625 L 166.273438 224.21875 L 164.214844 227.257812 Z M 125.753906 201.101562 "/>
<path style=" stroke:none;fill-rule:nonzero;fill:rgb(79.215686%,79.215686%,79.215686%);fill-opacity:1;" d="M 74.925781 224.21875 L 113.390625 198.0625 L 115.445312 201.101562 L 76.984375 227.257812 Z M 74.925781 224.21875 "/>
<path style=" stroke:none;fill-rule:nonzero;fill:rgb(79.215686%,79.215686%,79.215686%);fill-opacity:1;" d="M 170.28125 225.738281 C 170.28125 228.527344 168.027344 230.785156 165.246094 230.785156 C 162.460938 230.785156 160.207031 228.527344 160.207031 225.738281 C 160.207031 222.949219 162.460938 220.691406 165.246094 220.691406 C 168.027344 220.691406 170.28125 222.949219 170.28125 225.738281 Z M 170.28125 225.738281 "/>
<path style=" stroke:none;fill-rule:nonzero;fill:rgb(79.215686%,79.215686%,79.215686%);fill-opacity:1;" d="M 125.40625 225.738281 C 125.40625 228.527344 123.152344 230.785156 120.371094 230.785156 C 117.589844 230.785156 115.335938 228.527344 115.335938 225.738281 C 115.335938 222.949219 117.589844 220.691406 120.371094 220.691406 C 123.152344 220.691406 125.40625 222.949219 125.40625 225.738281 Z M 125.40625 225.738281 "/>
<path style=" stroke:none;fill-rule:nonzero;fill:rgb(79.215686%,79.215686%,79.215686%);fill-opacity:1;" d="M 80.992188 225.738281 C 80.992188 228.527344 78.738281 230.785156 75.957031 230.785156 C 73.175781 230.785156 70.917969 228.527344 70.917969 225.738281 C 70.917969 222.949219 73.175781 220.691406 75.957031 220.691406 C 78.738281 220.691406 80.992188 222.949219 80.992188 225.738281 Z M 80.992188 225.738281 "/>
<path style=" stroke:none;fill-rule:nonzero;fill:rgb(79.215686%,79.215686%,79.215686%);fill-opacity:1;" d="M 118.539062 199.582031 L 122.203125 199.582031 L 122.203125 225.738281 L 118.539062 225.738281 Z M 118.539062 199.582031 "/>
<path style=" stroke:none;fill-rule:nonzero;fill:rgb(79.215686%,79.215686%,79.215686%);fill-opacity:1;" d="M 124.035156 195.910156 L 117.164062 195.910156 L 117.164062 160.578125 L 124.035156 160.578125 Z M 124.035156 195.910156 "/>
<path style=" stroke:none;fill-rule:nonzero;fill:rgb(24.705882%,23.921569%,33.72549%);fill-opacity:1;" d="M 100.910156 166.082031 L 100.910156 157.824219 C 100.914062 154.65625 103.476562 152.089844 106.632812 152.089844 L 137.3125 152.089844 C 140.472656 152.089844 143.035156 154.65625 143.035156 157.824219 L 143.035156 166.082031 C 143.035156 169.25 140.472656 171.816406 137.3125 171.820312 L 106.632812 171.820312 C 103.476562 171.816406 100.914062 169.25 100.910156 166.082031 Z M 100.910156 166.082031 "/>
<path style=" stroke:none;fill-rule:nonzero;fill:rgb(100%,72.156863%,72.156863%);fill-opacity:1;" d="M 156.320312 222.542969 L 164.804688 222.542969 L 168.839844 200.492188 L 156.320312 200.492188 Z M 156.320312 222.542969 "/>
<path style=" stroke:none;fill-rule:nonzero;fill:rgb(18.431373%,18.039216%,25.490196%);fill-opacity:1;" d="M 154.15625 230.785156 L 181.515625 230.785156 L 181.515625 230.4375 C 181.515625 224.542969 176.746094 219.765625 170.867188 219.765625 L 170.863281 219.765625 L 154.15625 219.769531 Z M 154.15625 230.785156 "/>
<path style=" stroke:none;fill-rule:nonzero;fill:rgb(18.431373%,18.039216%,25.490196%);fill-opacity:1;" d="M 169.011719 208.867188 L 185.925781 170.855469 C 188.855469 164.210938 186.199219 156.429688 179.820312 152.972656 L 143.132812 133.257812 L 126.390625 131.832031 L 110.949219 130.421875 L 110.835938 130.613281 C 110.695312 130.855469 107.375 136.601562 109.617188 142.902344 C 111.320312 147.683594 115.75 151.417969 122.78125 154 C 139.191406 160.03125 158.152344 165.1875 165.542969 167.121094 C 166.203125 167.292969 166.757812 167.734375 167.070312 168.34375 C 167.386719 168.941406 167.433594 169.644531 167.207031 170.285156 L 151.492188 205.664062 C 151.160156 206.574219 151.269531 207.585938 151.785156 208.40625 C 152.300781 209.226562 153.167969 209.757812 154.128906 209.847656 L 165.871094 210.703125 C 165.972656 210.714844 166.070312 210.71875 166.167969 210.71875 C 167.398438 210.71875 168.511719 209.992188 169.011719 208.867188 Z M 169.011719 208.867188 "/>
<path style=" stroke:none;fill-rule:nonzero;fill:rgb(100%,72.156863%,72.156863%);fill-opacity:1;" d="M 150.785156 222.542969 L 159.269531 222.542969 L 163.304688 200.492188 L 150.78125 200.492188 Z M 150.785156 222.542969 "/>
<path style=" stroke:none;fill-rule:nonzero;fill:rgb(18.431373%,18.039216%,25.490196%);fill-opacity:1;" d="M 148.621094 230.785156 L 175.976562 230.785156 L 175.976562 230.4375 C 175.976562 224.542969 171.210938 219.765625 165.328125 219.765625 L 148.621094 219.769531 Z M 148.621094 230.785156 "/>
<path style=" stroke:none;fill-rule:nonzero;fill:rgb(18.431373%,18.039216%,25.490196%);fill-opacity:1;" d="M 162.78125 210.949219 L 179.695312 172.9375 C 182.625 166.292969 179.96875 158.507812 173.59375 155.054688 L 136.90625 135.339844 L 120.164062 133.910156 L 108.066406 132.859375 L 108.070312 132.691406 C 107.925781 132.933594 104.605469 138.683594 106.851562 144.984375 C 108.554688 149.765625 109.519531 153.5 116.550781 156.082031 C 132.964844 162.113281 151.921875 167.265625 159.3125 169.203125 C 159.972656 169.371094 160.53125 169.816406 160.84375 170.421875 C 161.15625 171.023438 161.207031 171.726562 160.980469 172.363281 L 145.265625 207.746094 C 144.933594 208.65625 145.039062 209.667969 145.554688 210.488281 C 146.070312 211.304688 146.9375 211.839844 147.902344 211.929688 L 159.644531 212.785156 C 159.742188 212.792969 159.839844 212.800781 159.941406 212.800781 C 161.167969 212.796875 162.28125 212.074219 162.78125 210.949219 Z M 162.78125 210.949219 "/>
<path style=" stroke:none;fill-rule:nonzero;fill:rgb(100%,72.156863%,72.156863%);fill-opacity:1;" d="M 139.566406 26.707031 C 148.699219 28.882812 154.34375 38.070312 152.171875 47.222656 C 150 56.375 140.835938 62.027344 131.703125 59.851562 C 122.570312 57.675781 116.925781 48.492188 119.097656 39.339844 C 121.269531 30.1875 130.433594 24.53125 139.566406 26.707031 Z M 139.566406 26.707031 "/>
<path style=" stroke:none;fill-rule:nonzero;fill:rgb(80%,80%,80%);fill-opacity:1;" d="M 194.226562 108.726562 C 201.335938 99.253906 206.953125 88.742188 210.886719 77.566406 C 211.359375 76.183594 210.765625 74.664062 209.480469 73.972656 L 185.160156 60.910156 C 184.363281 60.480469 183.410156 60.441406 182.582031 60.808594 C 181.734375 61.175781 181.109375 61.914062 180.878906 62.808594 C 178.046875 73.578125 172.726562 83.53125 165.34375 91.859375 C 164.726562 92.546875 164.464844 93.480469 164.625 94.390625 C 164.78125 95.285156 165.339844 96.054688 166.140625 96.484375 L 190.464844 109.542969 C 191.75 110.230469 193.339844 109.886719 194.226562 108.726562 Z M 194.226562 108.726562 "/>
<path style=" stroke:none;fill-rule:nonzero;fill:rgb(100%,100%,100%);fill-opacity:1;" d="M 192.566406 107.476562 C 192.296875 107.816406 191.824219 107.914062 191.445312 107.710938 L 167.121094 94.648438 C 166.882812 94.523438 166.714844 94.292969 166.667969 94.027344 C 166.617188 93.746094 166.703125 93.457031 166.894531 93.246094 C 174.492188 84.671875 179.972656 74.425781 182.886719 63.335938 C 182.953125 63.058594 183.148438 62.828125 183.410156 62.714844 C 183.65625 62.601562 183.941406 62.613281 184.179688 62.746094 L 208.5 75.804688 C 208.882812 76.011719 209.0625 76.460938 208.929688 76.871094 C 205.066406 87.851562 199.546875 98.171875 192.566406 107.476562 Z M 192.566406 107.476562 "/>
<path style=" stroke:none;fill-rule:nonzero;fill:rgb(80%,80%,80%);fill-opacity:1;" d="M 184.058594 75.15625 L 200.832031 85.007812 C 202.503906 85.988281 204.015625 83.390625 202.347656 82.414062 L 185.570312 72.558594 C 183.902344 71.578125 182.390625 74.175781 184.058594 75.15625 Z M 184.058594 75.15625 "/>
<path style=" stroke:none;fill-rule:nonzero;fill:rgb(80%,80%,80%);fill-opacity:1;" d="M 181.058594 80.667969 L 197.832031 90.519531 C 199.503906 91.5 201.015625 88.902344 199.347656 87.925781 L 182.570312 78.070312 C 180.902344 77.089844 179.390625 79.6875 181.058594 80.667969 Z M 181.058594 80.667969 "/>
<path style=" stroke:none;fill-rule:nonzero;fill:rgb(80%,80%,80%);fill-opacity:1;" d="M 178.699219 86.15625 L 193.957031 95.234375 C 195.476562 96.136719 197.097656 94.269531 195.582031 93.367188 L 180.328125 84.292969 C 178.808594 83.386719 177.183594 85.253906 178.699219 86.15625 Z M 178.699219 86.15625 "/>
<path style=" stroke:none;fill-rule:nonzero;fill:rgb(80%,80%,80%);fill-opacity:1;" d="M 174.058594 91.691406 L 190.832031 101.542969 C 192.503906 102.523438 194.015625 99.925781 192.347656 98.949219 L 175.570312 89.09375 C 173.902344 88.113281 172.390625 90.710938 174.058594 91.691406 Z M 174.058594 91.691406 "/>
<path style=" stroke:none;fill-rule:nonzero;fill:rgb(42.352941%,38.823529%,100%);fill-opacity:1;" d="M 145.4375 134.636719 L 111.800781 134.4375 L 111.789062 134.195312 C 111.148438 117.28125 113.210938 101.960938 118.09375 87.359375 C 118.164062 86.8125 118.238281 86.226562 118.3125 85.652344 C 119.148438 79.121094 119.808594 73.933594 126.007812 72 C 125.492188 71.3125 125.1875 70.488281 125.132812 69.628906 C 125.054688 68.472656 125.441406 67.335938 126.207031 66.472656 C 126.9375 65.636719 127.972656 65.128906 129.082031 65.066406 L 141.054688 64.65625 C 141.683594 64.652344 142.296875 64.859375 142.792969 65.246094 C 144.675781 66.648438 145.265625 69.210938 144.183594 71.296875 C 144.042969 71.578125 143.988281 71.707031 143.96875 71.765625 C 144.394531 74 145.65625 76.652344 146.992188 79.460938 C 148.90625 83.484375 151.078125 88.042969 151.632812 92.921875 C 151.933594 95.554688 151.808594 98.21875 151.261719 100.8125 C 151.015625 102.210938 150.957031 103.636719 151.09375 105.046875 C 151.203125 107.144531 151.304688 109.121094 150.125 111.035156 C 149.820312 111.554688 149.476562 112.105469 149.074219 112.71875 L 147.410156 116.703125 Z M 145.4375 134.636719 "/>
<path style=" stroke:none;fill-rule:nonzero;fill:rgb(24.705882%,23.921569%,33.72549%);fill-opacity:1;" d="M 94.957031 158.304688 L 94.957031 89.425781 C 94.964844 84.753906 98.742188 80.964844 103.40625 80.960938 L 105.742188 80.960938 C 110.40625 80.964844 114.183594 84.753906 114.191406 89.425781 L 114.191406 158.304688 C 114.183594 162.980469 110.40625 166.765625 105.742188 166.773438 L 103.40625 166.773438 C 98.742188 166.765625 94.964844 162.980469 94.957031 158.304688 Z M 94.957031 158.304688 "/>
<path style=" stroke:none;fill-rule:nonzero;fill:rgb(100%,71.372549%,71.372549%);fill-opacity:1;" d="M 185.160156 96.300781 C 184.917969 96.605469 184.703125 96.925781 184.511719 97.261719 L 149.929688 99.792969 L 145.1875 92.816406 L 133.75 98.613281 L 140.945312 111.78125 C 142.140625 113.964844 144.632812 115.097656 147.058594 114.5625 L 185.574219 106.027344 C 187.6875 108.234375 190.945312 108.894531 193.75 107.691406 C 196.554688 106.488281 198.324219 103.671875 198.195312 100.617188 C 198.066406 97.5625 196.0625 94.90625 193.164062 93.949219 C 190.269531 92.988281 187.082031 93.925781 185.160156 96.300781 Z M 185.160156 96.300781 "/>
<path style=" stroke:none;fill-rule:nonzero;fill:rgb(42.352941%,38.823529%,100%);fill-opacity:1;" d="M 148.769531 99.949219 L 134.632812 107.21875 C 133.820312 107.640625 132.863281 107.679688 132.015625 107.335938 C 131.167969 106.992188 130.511719 106.296875 130.214844 105.429688 L 125.125 90.394531 C 122.953125 86.097656 124.652344 80.851562 128.929688 78.652344 C 122.664062 81.875 135.714844 72.71875 140.695312 82.445312 L 149.890625 95.308594 C 150.421875 96.054688 150.605469 96.996094 150.390625 97.886719 C 150.171875 98.777344 149.582031 99.53125 148.769531 99.949219 Z M 148.769531 99.949219 "/>
<path style=" stroke:none;fill-rule:nonzero;fill:rgb(18.431373%,18.039216%,25.490196%);fill-opacity:1;" d="M 127.957031 59.847656 C 126.933594 59.847656 125.804688 59.355469 124.53125 58.351562 C 116.835938 52.296875 114.121094 41.832031 117.898438 32.785156 C 118.824219 30.570312 120.554688 27.558594 123.546875 25.792969 C 125.695312 24.527344 128.21875 24.070312 130.417969 23.738281 C 132.320312 23.453125 134.246094 23.226562 136.144531 23.0625 C 138.410156 22.867188 141.03125 22.738281 143.417969 23.648438 C 145.167969 24.3125 146.65625 25.492188 148.097656 26.628906 C 148.597656 27.023438 149.117188 27.433594 149.636719 27.816406 C 150.898438 28.800781 152.351562 29.507812 153.902344 29.890625 C 154.5625 30.027344 155.132812 30.445312 155.464844 31.039062 C 155.800781 31.640625 155.863281 32.355469 155.632812 33.007812 C 155.40625 33.636719 155.203125 34.207031 155.613281 34.824219 C 155.921875 35.265625 156.429688 35.523438 156.96875 35.515625 C 157.25 35.511719 157.519531 35.648438 157.675781 35.886719 C 157.835938 36.117188 157.871094 36.417969 157.769531 36.683594 L 157.703125 36.851562 C 158.0625 36.886719 158.378906 37.09375 158.554688 37.40625 C 158.816406 37.859375 158.734375 38.4375 158.347656 38.792969 C 156.832031 40.238281 154.941406 41.230469 152.890625 41.65625 C 151.484375 41.933594 150.042969 41.929688 148.640625 41.644531 L 148.414062 41.601562 L 148.441406 41.351562 C 142.769531 39.324219 137.648438 42.765625 134.730469 46.699219 L 134.308594 46.429688 C 134.457031 46.136719 134.476562 45.792969 134.363281 45.480469 C 134.246094 45.109375 133.984375 44.796875 133.636719 44.617188 C 132.925781 44.324219 132.105469 44.488281 131.5625 45.035156 C 131.015625 45.609375 130.734375 46.386719 130.789062 47.179688 C 130.867188 48.011719 131.078125 48.824219 131.414062 49.589844 C 131.550781 49.953125 131.695312 50.332031 131.808594 50.710938 C 132.453125 52.875 132.28125 55.199219 131.324219 57.246094 C 130.882812 58.175781 130.085938 59.363281 128.789062 59.734375 C 128.515625 59.808594 128.238281 59.847656 127.957031 59.847656 Z M 127.957031 59.847656 "/>
<path style=" stroke:none;fill-rule:nonzero;fill:rgb(79.215686%,79.215686%,79.215686%);fill-opacity:1;" d="M 404.242188 231.789062 L 0.59375 231.789062 C 0.265625 231.789062 0 231.519531 0 231.191406 C 0 230.863281 0.265625 230.597656 0.59375 230.59375 L 404.242188 230.59375 C 404.570312 230.59375 404.835938 230.863281 404.835938 231.191406 C 404.835938 231.519531 404.570312 231.789062 404.242188 231.789062 Z M 404.242188 231.789062 "/>
</g>
</svg>
